%TF.GenerationSoftware,KiCad,Pcbnew,6.0.9-8da3e8f707~117~ubuntu20.04.1*%
%TF.CreationDate,2022-12-05T22:16:00+00:00*%
%TF.ProjectId,drone,64726f6e-652e-46b6-9963-61645f706362,rev?*%
%TF.SameCoordinates,Original*%
%TF.FileFunction,Legend,Top*%
%TF.FilePolarity,Positive*%
%FSLAX46Y46*%
G04 Gerber Fmt 4.6, Leading zero omitted, Abs format (unit mm)*
G04 Created by KiCad (PCBNEW 6.0.9-8da3e8f707~117~ubuntu20.04.1) date 2022-12-05 22:16:00*
%MOMM*%
%LPD*%
G01*
G04 APERTURE LIST*
%ADD10C,0.300000*%
%ADD11C,0.120000*%
%ADD12C,0.150000*%
%ADD13C,0.146304*%
%ADD14C,0.254000*%
%ADD15C,0.101600*%
%ADD16C,0.203200*%
%ADD17C,0.304800*%
%ADD18C,0.200000*%
%ADD19C,0.127000*%
%ADD20C,0.100000*%
G04 APERTURE END LIST*
D10*
X97885714Y-83735714D02*
X97814285Y-83807142D01*
X97600000Y-83878571D01*
X97457142Y-83878571D01*
X97242857Y-83807142D01*
X97100000Y-83664285D01*
X97028571Y-83521428D01*
X96957142Y-83235714D01*
X96957142Y-83021428D01*
X97028571Y-82735714D01*
X97100000Y-82592857D01*
X97242857Y-82450000D01*
X97457142Y-82378571D01*
X97600000Y-82378571D01*
X97814285Y-82450000D01*
X97885714Y-82521428D01*
X99171428Y-83878571D02*
X99171428Y-83092857D01*
X99100000Y-82950000D01*
X98957142Y-82878571D01*
X98671428Y-82878571D01*
X98528571Y-82950000D01*
X99171428Y-83807142D02*
X99028571Y-83878571D01*
X98671428Y-83878571D01*
X98528571Y-83807142D01*
X98457142Y-83664285D01*
X98457142Y-83521428D01*
X98528571Y-83378571D01*
X98671428Y-83307142D01*
X99028571Y-83307142D01*
X99171428Y-83235714D01*
X99885714Y-82878571D02*
X99885714Y-83878571D01*
X99885714Y-83021428D02*
X99957142Y-82950000D01*
X100100000Y-82878571D01*
X100314285Y-82878571D01*
X100457142Y-82950000D01*
X100528571Y-83092857D01*
X100528571Y-83878571D01*
X102385714Y-83878571D02*
X102385714Y-82378571D01*
X104742857Y-83092857D02*
X104242857Y-83092857D01*
X104242857Y-83878571D02*
X104242857Y-82378571D01*
X104957142Y-82378571D01*
X105742857Y-83878571D02*
X105600000Y-83807142D01*
X105528571Y-83664285D01*
X105528571Y-82378571D01*
X106171428Y-82878571D02*
X106528571Y-83878571D01*
X106885714Y-82878571D02*
X106528571Y-83878571D01*
X106385714Y-84235714D01*
X106314285Y-84307142D01*
X106171428Y-84378571D01*
X108814285Y-83735714D02*
X108885714Y-83807142D01*
X108814285Y-83878571D01*
X108742857Y-83807142D01*
X108814285Y-83735714D01*
X108814285Y-83878571D01*
X108528571Y-82450000D02*
X108671428Y-82378571D01*
X109028571Y-82378571D01*
X109171428Y-82450000D01*
X109242857Y-82592857D01*
X109242857Y-82735714D01*
X109171428Y-82878571D01*
X109100000Y-82950000D01*
X108957142Y-83021428D01*
X108885714Y-83092857D01*
X108814285Y-83235714D01*
X108814285Y-83307142D01*
D11*
X64250000Y-52500000D02*
G75*
G03*
X64250000Y-52500000I-4250000J0D01*
G01*
X64250000Y-137500000D02*
G75*
G03*
X64250000Y-137500000I-4250000J0D01*
G01*
X149250000Y-52500000D02*
G75*
G03*
X149250000Y-52500000I-4250000J0D01*
G01*
X149250000Y-137500000D02*
G75*
G03*
X149250000Y-137500000I-4250000J0D01*
G01*
D12*
%TO.C,JP1*%
X86966666Y-88252380D02*
X86966666Y-88966666D01*
X86919047Y-89109523D01*
X86823809Y-89204761D01*
X86680952Y-89252380D01*
X86585714Y-89252380D01*
X87442857Y-89252380D02*
X87442857Y-88252380D01*
X87823809Y-88252380D01*
X87919047Y-88300000D01*
X87966666Y-88347619D01*
X88014285Y-88442857D01*
X88014285Y-88585714D01*
X87966666Y-88680952D01*
X87919047Y-88728571D01*
X87823809Y-88776190D01*
X87442857Y-88776190D01*
X88966666Y-89252380D02*
X88395238Y-89252380D01*
X88680952Y-89252380D02*
X88680952Y-88252380D01*
X88585714Y-88395238D01*
X88490476Y-88490476D01*
X88395238Y-88538095D01*
X89785714Y-89252380D02*
X89214285Y-89252380D01*
X89500000Y-89252380D02*
X89500000Y-88252380D01*
X89404761Y-88395238D01*
X89309523Y-88490476D01*
X89214285Y-88538095D01*
X94366666Y-88252380D02*
X94985714Y-88252380D01*
X94652380Y-88633333D01*
X94795238Y-88633333D01*
X94890476Y-88680952D01*
X94938095Y-88728571D01*
X94985714Y-88823809D01*
X94985714Y-89061904D01*
X94938095Y-89157142D01*
X94890476Y-89204761D01*
X94795238Y-89252380D01*
X94509523Y-89252380D01*
X94414285Y-89204761D01*
X94366666Y-89157142D01*
%TO.C,X1*%
X77404523Y-96028095D02*
X78674523Y-95181428D01*
X77404523Y-95181428D02*
X78674523Y-96028095D01*
X78674523Y-94032380D02*
X78674523Y-94758095D01*
X78674523Y-94395238D02*
X77404523Y-94395238D01*
X77585952Y-94516190D01*
X77706904Y-94637142D01*
X77767380Y-94758095D01*
D13*
X75655431Y-96968712D02*
X75845858Y-96460906D01*
X76036286Y-96968712D01*
X76099762Y-96143527D02*
X75433266Y-96143527D01*
X76099762Y-95762672D01*
X75433266Y-95762672D01*
X76099762Y-95159652D02*
X75750645Y-95159652D01*
X75687169Y-95191390D01*
X75655431Y-95254866D01*
X75655431Y-95381817D01*
X75687169Y-95445293D01*
X76068024Y-95159652D02*
X76099762Y-95223128D01*
X76099762Y-95381817D01*
X76068024Y-95445293D01*
X76004548Y-95477031D01*
X75941072Y-95477031D01*
X75877596Y-95445293D01*
X75845858Y-95381817D01*
X75845858Y-95223128D01*
X75814120Y-95159652D01*
X76099762Y-94842273D02*
X75655431Y-94842273D01*
X75718907Y-94842273D02*
X75687169Y-94810535D01*
X75655431Y-94747059D01*
X75655431Y-94651845D01*
X75687169Y-94588370D01*
X75750645Y-94556632D01*
X76099762Y-94556632D01*
X75750645Y-94556632D02*
X75687169Y-94524894D01*
X75655431Y-94461418D01*
X75655431Y-94366204D01*
X75687169Y-94302728D01*
X75750645Y-94270990D01*
X76099762Y-94270990D01*
X76068024Y-93699708D02*
X76099762Y-93763184D01*
X76099762Y-93890136D01*
X76068024Y-93953611D01*
X76004548Y-93985349D01*
X75750645Y-93985349D01*
X75687169Y-93953611D01*
X75655431Y-93890136D01*
X75655431Y-93763184D01*
X75687169Y-93699708D01*
X75750645Y-93667970D01*
X75814120Y-93667970D01*
X75877596Y-93985349D01*
D12*
%TO.C,L1*%
X83802380Y-84566666D02*
X83802380Y-85042857D01*
X82802380Y-85042857D01*
X83802380Y-83709523D02*
X83802380Y-84280952D01*
X83802380Y-83995238D02*
X82802380Y-83995238D01*
X82945238Y-84090476D01*
X83040476Y-84185714D01*
X83088095Y-84280952D01*
D13*
%TO.C,C1*%
X93604786Y-64565358D02*
X93636524Y-64597095D01*
X93668262Y-64692309D01*
X93668262Y-64755785D01*
X93636524Y-64850999D01*
X93573048Y-64914474D01*
X93509572Y-64946212D01*
X93382620Y-64977950D01*
X93287407Y-64977950D01*
X93160455Y-64946212D01*
X93096979Y-64914474D01*
X93033504Y-64850999D01*
X93001766Y-64755785D01*
X93001766Y-64692309D01*
X93033504Y-64597095D01*
X93065241Y-64565358D01*
X93668262Y-63930599D02*
X93668262Y-64311454D01*
X93668262Y-64121027D02*
X93001766Y-64121027D01*
X93096979Y-64184503D01*
X93160455Y-64247978D01*
X93192193Y-64311454D01*
%TO.C,R8*%
X90740794Y-85785385D02*
X90673467Y-86166900D01*
X91010099Y-86054690D02*
X90538815Y-86525974D01*
X90359278Y-86346437D01*
X90336836Y-86279111D01*
X90336836Y-86234227D01*
X90359278Y-86166900D01*
X90426604Y-86099574D01*
X90493931Y-86077132D01*
X90538815Y-86077132D01*
X90606141Y-86099574D01*
X90785678Y-86279111D01*
X90202184Y-85785385D02*
X90224626Y-85852711D01*
X90224626Y-85897595D01*
X90202184Y-85964922D01*
X90179741Y-85987364D01*
X90112415Y-86009806D01*
X90067531Y-86009806D01*
X90000205Y-85987364D01*
X89910436Y-85897595D01*
X89887994Y-85830269D01*
X89887994Y-85785385D01*
X89910436Y-85718059D01*
X89932879Y-85695617D01*
X90000205Y-85673174D01*
X90045089Y-85673174D01*
X90112415Y-85695617D01*
X90202184Y-85785385D01*
X90269510Y-85807827D01*
X90314394Y-85807827D01*
X90381720Y-85785385D01*
X90471489Y-85695617D01*
X90493931Y-85628290D01*
X90493931Y-85583406D01*
X90471489Y-85516080D01*
X90381720Y-85426311D01*
X90314394Y-85403869D01*
X90269510Y-85403869D01*
X90202184Y-85426311D01*
X90112415Y-85516080D01*
X90089973Y-85583406D01*
X90089973Y-85628290D01*
X90112415Y-85695617D01*
%TO.C,U2*%
X99931787Y-101901766D02*
X99931787Y-102441310D01*
X99963525Y-102504786D01*
X99995262Y-102536524D01*
X100058738Y-102568262D01*
X100185690Y-102568262D01*
X100249166Y-102536524D01*
X100280904Y-102504786D01*
X100312641Y-102441310D01*
X100312641Y-101901766D01*
X100598283Y-101965241D02*
X100630021Y-101933504D01*
X100693496Y-101901766D01*
X100852186Y-101901766D01*
X100915662Y-101933504D01*
X100947400Y-101965241D01*
X100979137Y-102028717D01*
X100979137Y-102092193D01*
X100947400Y-102187407D01*
X100566545Y-102568262D01*
X100979137Y-102568262D01*
%TO.C,R11*%
X86361365Y-83026644D02*
X86294038Y-83408159D01*
X86630670Y-83295949D02*
X86159386Y-83767233D01*
X85979849Y-83587696D01*
X85957407Y-83520370D01*
X85957407Y-83475486D01*
X85979849Y-83408159D01*
X86047176Y-83340833D01*
X86114502Y-83318391D01*
X86159386Y-83318391D01*
X86226712Y-83340833D01*
X86406249Y-83520370D01*
X85912523Y-82577802D02*
X86181828Y-82847107D01*
X86047176Y-82712455D02*
X85575892Y-83183739D01*
X85688102Y-83161296D01*
X85777870Y-83161296D01*
X85845197Y-83183739D01*
X85463681Y-82128960D02*
X85732986Y-82398265D01*
X85598334Y-82263613D02*
X85127050Y-82734897D01*
X85239260Y-82712455D01*
X85329029Y-82712455D01*
X85396355Y-82734897D01*
D12*
%TO.C,J2*%
X59666666Y-86427380D02*
X59666666Y-87141666D01*
X59619047Y-87284523D01*
X59523809Y-87379761D01*
X59380952Y-87427380D01*
X59285714Y-87427380D01*
X60095238Y-86522619D02*
X60142857Y-86475000D01*
X60238095Y-86427380D01*
X60476190Y-86427380D01*
X60571428Y-86475000D01*
X60619047Y-86522619D01*
X60666666Y-86617857D01*
X60666666Y-86713095D01*
X60619047Y-86855952D01*
X60047619Y-87427380D01*
X60666666Y-87427380D01*
D13*
%TO.C,R12*%
X102358434Y-107268262D02*
X102136269Y-106950883D01*
X101977579Y-107268262D02*
X101977579Y-106601766D01*
X102231482Y-106601766D01*
X102294958Y-106633504D01*
X102326696Y-106665241D01*
X102358434Y-106728717D01*
X102358434Y-106823931D01*
X102326696Y-106887407D01*
X102294958Y-106919145D01*
X102231482Y-106950883D01*
X101977579Y-106950883D01*
X102993192Y-107268262D02*
X102612337Y-107268262D01*
X102802765Y-107268262D02*
X102802765Y-106601766D01*
X102739289Y-106696979D01*
X102675813Y-106760455D01*
X102612337Y-106792193D01*
X103247095Y-106665241D02*
X103278833Y-106633504D01*
X103342309Y-106601766D01*
X103500999Y-106601766D01*
X103564474Y-106633504D01*
X103596212Y-106665241D01*
X103627950Y-106728717D01*
X103627950Y-106792193D01*
X103596212Y-106887407D01*
X103215358Y-107268262D01*
X103627950Y-107268262D01*
D12*
%TO.C,D5*%
X134282110Y-65094575D02*
X133575004Y-65801682D01*
X133406645Y-65633323D01*
X133339301Y-65498636D01*
X133339301Y-65363949D01*
X133372973Y-65262934D01*
X133473988Y-65094575D01*
X133575004Y-64993560D01*
X133743362Y-64892545D01*
X133844378Y-64858873D01*
X133979065Y-64858873D01*
X134113752Y-64926216D01*
X134282110Y-65094575D01*
X132531179Y-64757857D02*
X132867897Y-65094575D01*
X133238286Y-64791529D01*
X133170942Y-64791529D01*
X133069927Y-64757857D01*
X132901568Y-64589499D01*
X132867897Y-64488483D01*
X132867897Y-64421140D01*
X132901568Y-64320125D01*
X133069927Y-64151766D01*
X133170942Y-64118094D01*
X133238286Y-64118094D01*
X133339301Y-64151766D01*
X133507660Y-64320125D01*
X133541332Y-64421140D01*
X133541332Y-64488483D01*
D13*
%TO.C,C6*%
X100466641Y-107431786D02*
X100434904Y-107463524D01*
X100339690Y-107495262D01*
X100276214Y-107495262D01*
X100181000Y-107463524D01*
X100117525Y-107400048D01*
X100085787Y-107336572D01*
X100054049Y-107209620D01*
X100054049Y-107114407D01*
X100085787Y-106987455D01*
X100117525Y-106923979D01*
X100181000Y-106860504D01*
X100276214Y-106828766D01*
X100339690Y-106828766D01*
X100434904Y-106860504D01*
X100466641Y-106892241D01*
X101037924Y-106828766D02*
X100910972Y-106828766D01*
X100847496Y-106860504D01*
X100815758Y-106892241D01*
X100752283Y-106987455D01*
X100720545Y-107114407D01*
X100720545Y-107368310D01*
X100752283Y-107431786D01*
X100784021Y-107463524D01*
X100847496Y-107495262D01*
X100974448Y-107495262D01*
X101037924Y-107463524D01*
X101069662Y-107431786D01*
X101101400Y-107368310D01*
X101101400Y-107209620D01*
X101069662Y-107146145D01*
X101037924Y-107114407D01*
X100974448Y-107082669D01*
X100847496Y-107082669D01*
X100784021Y-107114407D01*
X100752283Y-107146145D01*
X100720545Y-107209620D01*
%TO.C,C18*%
X86608434Y-86704786D02*
X86576696Y-86736524D01*
X86481482Y-86768262D01*
X86418007Y-86768262D01*
X86322793Y-86736524D01*
X86259317Y-86673048D01*
X86227579Y-86609572D01*
X86195841Y-86482620D01*
X86195841Y-86387407D01*
X86227579Y-86260455D01*
X86259317Y-86196979D01*
X86322793Y-86133504D01*
X86418007Y-86101766D01*
X86481482Y-86101766D01*
X86576696Y-86133504D01*
X86608434Y-86165241D01*
X87243192Y-86768262D02*
X86862337Y-86768262D01*
X87052765Y-86768262D02*
X87052765Y-86101766D01*
X86989289Y-86196979D01*
X86925813Y-86260455D01*
X86862337Y-86292193D01*
X87624047Y-86387407D02*
X87560571Y-86355669D01*
X87528833Y-86323931D01*
X87497095Y-86260455D01*
X87497095Y-86228717D01*
X87528833Y-86165241D01*
X87560571Y-86133504D01*
X87624047Y-86101766D01*
X87750999Y-86101766D01*
X87814474Y-86133504D01*
X87846212Y-86165241D01*
X87877950Y-86228717D01*
X87877950Y-86260455D01*
X87846212Y-86323931D01*
X87814474Y-86355669D01*
X87750999Y-86387407D01*
X87624047Y-86387407D01*
X87560571Y-86419145D01*
X87528833Y-86450883D01*
X87497095Y-86514358D01*
X87497095Y-86641310D01*
X87528833Y-86704786D01*
X87560571Y-86736524D01*
X87624047Y-86768262D01*
X87750999Y-86768262D01*
X87814474Y-86736524D01*
X87846212Y-86704786D01*
X87877950Y-86641310D01*
X87877950Y-86514358D01*
X87846212Y-86450883D01*
X87814474Y-86419145D01*
X87750999Y-86387407D01*
%TO.C,C13*%
X92204786Y-64565358D02*
X92236524Y-64597095D01*
X92268262Y-64692309D01*
X92268262Y-64755785D01*
X92236524Y-64850999D01*
X92173048Y-64914474D01*
X92109572Y-64946212D01*
X91982620Y-64977950D01*
X91887407Y-64977950D01*
X91760455Y-64946212D01*
X91696979Y-64914474D01*
X91633504Y-64850999D01*
X91601766Y-64755785D01*
X91601766Y-64692309D01*
X91633504Y-64597095D01*
X91665241Y-64565358D01*
X92268262Y-63930599D02*
X92268262Y-64311454D01*
X92268262Y-64121027D02*
X91601766Y-64121027D01*
X91696979Y-64184503D01*
X91760455Y-64247978D01*
X91792193Y-64311454D01*
X91601766Y-63708434D02*
X91601766Y-63295841D01*
X91855669Y-63518007D01*
X91855669Y-63422793D01*
X91887407Y-63359317D01*
X91919145Y-63327579D01*
X91982620Y-63295841D01*
X92141310Y-63295841D01*
X92204786Y-63327579D01*
X92236524Y-63359317D01*
X92268262Y-63422793D01*
X92268262Y-63613220D01*
X92236524Y-63676696D01*
X92204786Y-63708434D01*
%TO.C,R5*%
X109143192Y-113468262D02*
X108921027Y-113150883D01*
X108762337Y-113468262D02*
X108762337Y-112801766D01*
X109016241Y-112801766D01*
X109079716Y-112833504D01*
X109111454Y-112865241D01*
X109143192Y-112928717D01*
X109143192Y-113023931D01*
X109111454Y-113087407D01*
X109079716Y-113119145D01*
X109016241Y-113150883D01*
X108762337Y-113150883D01*
X109746212Y-112801766D02*
X109428833Y-112801766D01*
X109397095Y-113119145D01*
X109428833Y-113087407D01*
X109492309Y-113055669D01*
X109650999Y-113055669D01*
X109714474Y-113087407D01*
X109746212Y-113119145D01*
X109777950Y-113182620D01*
X109777950Y-113341310D01*
X109746212Y-113404786D01*
X109714474Y-113436524D01*
X109650999Y-113468262D01*
X109492309Y-113468262D01*
X109428833Y-113436524D01*
X109397095Y-113404786D01*
%TO.C,R2*%
X111343192Y-88668262D02*
X111121027Y-88350883D01*
X110962337Y-88668262D02*
X110962337Y-88001766D01*
X111216241Y-88001766D01*
X111279716Y-88033504D01*
X111311454Y-88065241D01*
X111343192Y-88128717D01*
X111343192Y-88223931D01*
X111311454Y-88287407D01*
X111279716Y-88319145D01*
X111216241Y-88350883D01*
X110962337Y-88350883D01*
X111597095Y-88065241D02*
X111628833Y-88033504D01*
X111692309Y-88001766D01*
X111850999Y-88001766D01*
X111914474Y-88033504D01*
X111946212Y-88065241D01*
X111977950Y-88128717D01*
X111977950Y-88192193D01*
X111946212Y-88287407D01*
X111565358Y-88668262D01*
X111977950Y-88668262D01*
%TO.C,C11*%
X109062641Y-115231786D02*
X109030904Y-115263524D01*
X108935690Y-115295262D01*
X108872214Y-115295262D01*
X108777000Y-115263524D01*
X108713525Y-115200048D01*
X108681787Y-115136572D01*
X108650049Y-115009620D01*
X108650049Y-114914407D01*
X108681787Y-114787455D01*
X108713525Y-114723979D01*
X108777000Y-114660504D01*
X108872214Y-114628766D01*
X108935690Y-114628766D01*
X109030904Y-114660504D01*
X109062641Y-114692241D01*
X109697400Y-115295262D02*
X109316545Y-115295262D01*
X109506972Y-115295262D02*
X109506972Y-114628766D01*
X109443496Y-114723979D01*
X109380021Y-114787455D01*
X109316545Y-114819193D01*
X110332158Y-115295262D02*
X109951303Y-115295262D01*
X110141730Y-115295262D02*
X110141730Y-114628766D01*
X110078254Y-114723979D01*
X110014779Y-114787455D01*
X109951303Y-114819193D01*
D12*
%TO.C,D2*%
X72577677Y-65918477D02*
X71870570Y-65211371D01*
X72038929Y-65043012D01*
X72173616Y-64975668D01*
X72308303Y-64975668D01*
X72409318Y-65009340D01*
X72577677Y-65110355D01*
X72678692Y-65211371D01*
X72779708Y-65379729D01*
X72813379Y-65480745D01*
X72813379Y-65615432D01*
X72746036Y-65750119D01*
X72577677Y-65918477D01*
X72611349Y-64605279D02*
X72611349Y-64537935D01*
X72645020Y-64436920D01*
X72813379Y-64268561D01*
X72914395Y-64234890D01*
X72981738Y-64234890D01*
X73082753Y-64268561D01*
X73150097Y-64335905D01*
X73217440Y-64470592D01*
X73217440Y-65278714D01*
X73655173Y-64840981D01*
D13*
%TO.C,C2*%
X100116641Y-99631786D02*
X100084904Y-99663524D01*
X99989690Y-99695262D01*
X99926214Y-99695262D01*
X99831000Y-99663524D01*
X99767525Y-99600048D01*
X99735787Y-99536572D01*
X99704049Y-99409620D01*
X99704049Y-99314407D01*
X99735787Y-99187455D01*
X99767525Y-99123979D01*
X99831000Y-99060504D01*
X99926214Y-99028766D01*
X99989690Y-99028766D01*
X100084904Y-99060504D01*
X100116641Y-99092241D01*
X100370545Y-99092241D02*
X100402283Y-99060504D01*
X100465758Y-99028766D01*
X100624448Y-99028766D01*
X100687924Y-99060504D01*
X100719662Y-99092241D01*
X100751400Y-99155717D01*
X100751400Y-99219193D01*
X100719662Y-99314407D01*
X100338807Y-99695262D01*
X100751400Y-99695262D01*
%TO.C,R9*%
X97768262Y-110556807D02*
X97450883Y-110778972D01*
X97768262Y-110937662D02*
X97101766Y-110937662D01*
X97101766Y-110683758D01*
X97133504Y-110620283D01*
X97165241Y-110588545D01*
X97228717Y-110556807D01*
X97323931Y-110556807D01*
X97387407Y-110588545D01*
X97419145Y-110620283D01*
X97450883Y-110683758D01*
X97450883Y-110937662D01*
X97768262Y-110239428D02*
X97768262Y-110112476D01*
X97736524Y-110049000D01*
X97704786Y-110017262D01*
X97609572Y-109953787D01*
X97482620Y-109922049D01*
X97228717Y-109922049D01*
X97165241Y-109953787D01*
X97133504Y-109985525D01*
X97101766Y-110049000D01*
X97101766Y-110175952D01*
X97133504Y-110239428D01*
X97165241Y-110271166D01*
X97228717Y-110302904D01*
X97387407Y-110302904D01*
X97450883Y-110271166D01*
X97482620Y-110239428D01*
X97514358Y-110175952D01*
X97514358Y-110049000D01*
X97482620Y-109985525D01*
X97450883Y-109953787D01*
X97387407Y-109922049D01*
%TO.C,C7*%
X121756898Y-77935720D02*
X121756898Y-77980604D01*
X121712014Y-78070372D01*
X121667130Y-78115256D01*
X121577361Y-78160140D01*
X121487593Y-78160140D01*
X121420267Y-78137698D01*
X121308056Y-78070372D01*
X121240730Y-78003046D01*
X121173404Y-77890835D01*
X121150962Y-77823509D01*
X121150962Y-77733741D01*
X121195846Y-77643972D01*
X121240730Y-77599088D01*
X121330498Y-77554204D01*
X121375382Y-77554204D01*
X121487593Y-77352225D02*
X121801782Y-77038036D01*
X122071087Y-77711299D01*
D12*
%TO.C,J1*%
X74927380Y-88533333D02*
X75641666Y-88533333D01*
X75784523Y-88580952D01*
X75879761Y-88676190D01*
X75927380Y-88819047D01*
X75927380Y-88914285D01*
X75927380Y-87533333D02*
X75927380Y-88104761D01*
X75927380Y-87819047D02*
X74927380Y-87819047D01*
X75070238Y-87914285D01*
X75165476Y-88009523D01*
X75213095Y-88104761D01*
%TO.C,J3*%
X134271359Y-131026748D02*
X134776435Y-130521672D01*
X134911122Y-130454328D01*
X135045809Y-130454328D01*
X135180496Y-130521672D01*
X135247839Y-130589015D01*
X134001985Y-130757374D02*
X133564252Y-130319641D01*
X134069328Y-130285969D01*
X133968313Y-130184954D01*
X133934641Y-130083939D01*
X133934641Y-130016595D01*
X133968313Y-129915580D01*
X134136672Y-129747221D01*
X134237687Y-129713550D01*
X134305030Y-129713550D01*
X134406046Y-129747221D01*
X134608076Y-129949252D01*
X134641748Y-130050267D01*
X134641748Y-130117611D01*
D13*
%TO.C,C4*%
X109981786Y-97437358D02*
X110013524Y-97469095D01*
X110045262Y-97564309D01*
X110045262Y-97627785D01*
X110013524Y-97722999D01*
X109950048Y-97786474D01*
X109886572Y-97818212D01*
X109759620Y-97849950D01*
X109664407Y-97849950D01*
X109537455Y-97818212D01*
X109473979Y-97786474D01*
X109410504Y-97722999D01*
X109378766Y-97627785D01*
X109378766Y-97564309D01*
X109410504Y-97469095D01*
X109442241Y-97437358D01*
X109600931Y-96866075D02*
X110045262Y-96866075D01*
X109347028Y-97024765D02*
X109823096Y-97183454D01*
X109823096Y-96770862D01*
%TO.C,C5*%
X93626819Y-97974475D02*
X93626819Y-98019359D01*
X93581935Y-98109127D01*
X93537051Y-98154011D01*
X93447282Y-98198895D01*
X93357514Y-98198895D01*
X93290188Y-98176453D01*
X93177977Y-98109127D01*
X93110651Y-98041801D01*
X93043325Y-97929590D01*
X93020883Y-97862264D01*
X93020883Y-97772496D01*
X93065767Y-97682727D01*
X93110651Y-97637843D01*
X93200419Y-97592959D01*
X93245303Y-97592959D01*
X93626819Y-97121675D02*
X93402398Y-97346096D01*
X93604377Y-97592959D01*
X93604377Y-97548075D01*
X93626819Y-97480749D01*
X93739029Y-97368538D01*
X93806356Y-97346096D01*
X93851240Y-97346096D01*
X93918566Y-97368538D01*
X94030777Y-97480749D01*
X94053219Y-97548075D01*
X94053219Y-97592959D01*
X94030777Y-97660285D01*
X93918566Y-97772496D01*
X93851240Y-97794938D01*
X93806356Y-97794938D01*
D12*
%TO.C,Q6*%
X69640449Y-126449654D02*
X69539434Y-126483326D01*
X69404747Y-126483326D01*
X69202716Y-126483326D01*
X69101701Y-126516998D01*
X69034358Y-126584341D01*
X69236388Y-126719028D02*
X69135373Y-126752700D01*
X69000686Y-126752700D01*
X68832327Y-126651685D01*
X68596625Y-126415982D01*
X68495610Y-126247624D01*
X68495610Y-126112937D01*
X68529281Y-126011921D01*
X68663968Y-125877234D01*
X68764984Y-125843563D01*
X68899671Y-125843563D01*
X69068029Y-125944578D01*
X69303732Y-126180280D01*
X69404747Y-126348639D01*
X69404747Y-126483326D01*
X69371075Y-126584341D01*
X69236388Y-126719028D01*
X69438419Y-125102784D02*
X69303732Y-125237471D01*
X69270060Y-125338486D01*
X69270060Y-125405830D01*
X69303732Y-125574189D01*
X69404747Y-125742547D01*
X69674121Y-126011921D01*
X69775136Y-126045593D01*
X69842480Y-126045593D01*
X69943495Y-126011921D01*
X70078182Y-125877234D01*
X70111854Y-125776219D01*
X70111854Y-125708876D01*
X70078182Y-125607860D01*
X69909823Y-125439502D01*
X69808808Y-125405830D01*
X69741464Y-125405830D01*
X69640449Y-125439502D01*
X69505762Y-125574189D01*
X69472090Y-125675204D01*
X69472090Y-125742547D01*
X69505762Y-125843563D01*
D13*
%TO.C,Q3*%
X94308737Y-104123882D02*
X94277000Y-104187358D01*
X94213524Y-104250833D01*
X94118310Y-104346047D01*
X94086572Y-104409523D01*
X94086572Y-104472999D01*
X94245262Y-104441261D02*
X94213524Y-104504737D01*
X94150048Y-104568212D01*
X94023096Y-104599950D01*
X93800931Y-104599950D01*
X93673979Y-104568212D01*
X93610504Y-104504737D01*
X93578766Y-104441261D01*
X93578766Y-104314309D01*
X93610504Y-104250833D01*
X93673979Y-104187358D01*
X93800931Y-104155620D01*
X94023096Y-104155620D01*
X94150048Y-104187358D01*
X94213524Y-104250833D01*
X94245262Y-104314309D01*
X94245262Y-104441261D01*
X93578766Y-103933454D02*
X93578766Y-103520862D01*
X93832669Y-103743027D01*
X93832669Y-103647813D01*
X93864407Y-103584337D01*
X93896145Y-103552599D01*
X93959620Y-103520862D01*
X94118310Y-103520862D01*
X94181786Y-103552599D01*
X94213524Y-103584337D01*
X94245262Y-103647813D01*
X94245262Y-103838241D01*
X94213524Y-103901716D01*
X94181786Y-103933454D01*
%TO.C,R4*%
X106734641Y-86968262D02*
X106512476Y-86650883D01*
X106353787Y-86968262D02*
X106353787Y-86301766D01*
X106607690Y-86301766D01*
X106671166Y-86333504D01*
X106702904Y-86365241D01*
X106734641Y-86428717D01*
X106734641Y-86523931D01*
X106702904Y-86587407D01*
X106671166Y-86619145D01*
X106607690Y-86650883D01*
X106353787Y-86650883D01*
X107305924Y-86523931D02*
X107305924Y-86968262D01*
X107147234Y-86270028D02*
X106988545Y-86746096D01*
X107401137Y-86746096D01*
%TO.C,C15*%
X109627786Y-96769565D02*
X109659524Y-96801303D01*
X109691262Y-96896517D01*
X109691262Y-96959992D01*
X109659524Y-97055206D01*
X109596048Y-97118682D01*
X109532572Y-97150420D01*
X109405620Y-97182158D01*
X109310407Y-97182158D01*
X109183455Y-97150420D01*
X109119979Y-97118682D01*
X109056504Y-97055206D01*
X109024766Y-96959992D01*
X109024766Y-96896517D01*
X109056504Y-96801303D01*
X109088241Y-96769565D01*
X109691262Y-96134807D02*
X109691262Y-96515662D01*
X109691262Y-96325234D02*
X109024766Y-96325234D01*
X109119979Y-96388710D01*
X109183455Y-96452186D01*
X109215193Y-96515662D01*
X109024766Y-95531787D02*
X109024766Y-95849166D01*
X109342145Y-95880904D01*
X109310407Y-95849166D01*
X109278669Y-95785690D01*
X109278669Y-95627000D01*
X109310407Y-95563525D01*
X109342145Y-95531787D01*
X109405620Y-95500049D01*
X109564310Y-95500049D01*
X109627786Y-95531787D01*
X109659524Y-95563525D01*
X109691262Y-95627000D01*
X109691262Y-95785690D01*
X109659524Y-95849166D01*
X109627786Y-95880904D01*
%TO.C,R6*%
X98512641Y-115495262D02*
X98290476Y-115177883D01*
X98131787Y-115495262D02*
X98131787Y-114828766D01*
X98385690Y-114828766D01*
X98449166Y-114860504D01*
X98480904Y-114892241D01*
X98512641Y-114955717D01*
X98512641Y-115050931D01*
X98480904Y-115114407D01*
X98449166Y-115146145D01*
X98385690Y-115177883D01*
X98131787Y-115177883D01*
X99083924Y-114828766D02*
X98956972Y-114828766D01*
X98893496Y-114860504D01*
X98861758Y-114892241D01*
X98798283Y-114987455D01*
X98766545Y-115114407D01*
X98766545Y-115368310D01*
X98798283Y-115431786D01*
X98830021Y-115463524D01*
X98893496Y-115495262D01*
X99020448Y-115495262D01*
X99083924Y-115463524D01*
X99115662Y-115431786D01*
X99147400Y-115368310D01*
X99147400Y-115209620D01*
X99115662Y-115146145D01*
X99083924Y-115114407D01*
X99020448Y-115082669D01*
X98893496Y-115082669D01*
X98830021Y-115114407D01*
X98798283Y-115146145D01*
X98766545Y-115209620D01*
%TO.C,R10*%
X87058434Y-75868262D02*
X86836269Y-75550883D01*
X86677579Y-75868262D02*
X86677579Y-75201766D01*
X86931482Y-75201766D01*
X86994958Y-75233504D01*
X87026696Y-75265241D01*
X87058434Y-75328717D01*
X87058434Y-75423931D01*
X87026696Y-75487407D01*
X86994958Y-75519145D01*
X86931482Y-75550883D01*
X86677579Y-75550883D01*
X87693192Y-75868262D02*
X87312337Y-75868262D01*
X87502765Y-75868262D02*
X87502765Y-75201766D01*
X87439289Y-75296979D01*
X87375813Y-75360455D01*
X87312337Y-75392193D01*
X88105785Y-75201766D02*
X88169261Y-75201766D01*
X88232737Y-75233504D01*
X88264474Y-75265241D01*
X88296212Y-75328717D01*
X88327950Y-75455669D01*
X88327950Y-75614358D01*
X88296212Y-75741310D01*
X88264474Y-75804786D01*
X88232737Y-75836524D01*
X88169261Y-75868262D01*
X88105785Y-75868262D01*
X88042309Y-75836524D01*
X88010571Y-75804786D01*
X87978833Y-75741310D01*
X87947095Y-75614358D01*
X87947095Y-75455669D01*
X87978833Y-75328717D01*
X88010571Y-75265241D01*
X88042309Y-75233504D01*
X88105785Y-75201766D01*
%TO.C,SW1*%
X90458524Y-117909950D02*
X90490262Y-117814737D01*
X90490262Y-117656047D01*
X90458524Y-117592571D01*
X90426786Y-117560833D01*
X90363310Y-117529095D01*
X90299834Y-117529095D01*
X90236358Y-117560833D01*
X90204620Y-117592571D01*
X90172883Y-117656047D01*
X90141145Y-117782999D01*
X90109407Y-117846474D01*
X90077669Y-117878212D01*
X90014193Y-117909950D01*
X89950717Y-117909950D01*
X89887241Y-117878212D01*
X89855504Y-117846474D01*
X89823766Y-117782999D01*
X89823766Y-117624309D01*
X89855504Y-117529095D01*
X89823766Y-117306930D02*
X90490262Y-117148241D01*
X90014193Y-117021289D01*
X90490262Y-116894337D01*
X89823766Y-116735648D01*
X90490262Y-116132628D02*
X90490262Y-116513482D01*
X90490262Y-116323055D02*
X89823766Y-116323055D01*
X89918979Y-116386531D01*
X89982455Y-116450007D01*
X90014193Y-116513482D01*
%TO.C,R17*%
X77598647Y-71467795D02*
X77531320Y-71849310D01*
X77867952Y-71737100D02*
X77396668Y-72208384D01*
X77217131Y-72028847D01*
X77194689Y-71961521D01*
X77194689Y-71916637D01*
X77217131Y-71849310D01*
X77284458Y-71781984D01*
X77351784Y-71759542D01*
X77396668Y-71759542D01*
X77463994Y-71781984D01*
X77643531Y-71961521D01*
X77149805Y-71018953D02*
X77419110Y-71288258D01*
X77284458Y-71153606D02*
X76813174Y-71624890D01*
X76925384Y-71602447D01*
X77015152Y-71602447D01*
X77082479Y-71624890D01*
X76521427Y-71333142D02*
X76207237Y-71018953D01*
X76880500Y-70749648D01*
%TO.C,R7*%
X103512641Y-103995262D02*
X103290476Y-103677883D01*
X103131787Y-103995262D02*
X103131787Y-103328766D01*
X103385690Y-103328766D01*
X103449166Y-103360504D01*
X103480904Y-103392241D01*
X103512641Y-103455717D01*
X103512641Y-103550931D01*
X103480904Y-103614407D01*
X103449166Y-103646145D01*
X103385690Y-103677883D01*
X103131787Y-103677883D01*
X103734807Y-103328766D02*
X104179137Y-103328766D01*
X103893496Y-103995262D01*
D12*
%TO.C,D6*%
X68623561Y-130867385D02*
X67916454Y-130160279D01*
X68084813Y-129991920D01*
X68219500Y-129924576D01*
X68354187Y-129924576D01*
X68455202Y-129958248D01*
X68623561Y-130059263D01*
X68724576Y-130160279D01*
X68825592Y-130328637D01*
X68859263Y-130429653D01*
X68859263Y-130564340D01*
X68791920Y-130699027D01*
X68623561Y-130867385D01*
X68926607Y-129150126D02*
X68791920Y-129284813D01*
X68758248Y-129385828D01*
X68758248Y-129453172D01*
X68791920Y-129621530D01*
X68892935Y-129789889D01*
X69162309Y-130059263D01*
X69263324Y-130092935D01*
X69330668Y-130092935D01*
X69431683Y-130059263D01*
X69566370Y-129924576D01*
X69600042Y-129823561D01*
X69600042Y-129756217D01*
X69566370Y-129655202D01*
X69398011Y-129486843D01*
X69296996Y-129453172D01*
X69229653Y-129453172D01*
X69128637Y-129486843D01*
X68993950Y-129621530D01*
X68960279Y-129722546D01*
X68960279Y-129789889D01*
X68993950Y-129890904D01*
D13*
%TO.C,R21*%
X71920384Y-124340332D02*
X71538869Y-124273006D01*
X71651079Y-124609637D02*
X71179796Y-124138354D01*
X71359332Y-123958817D01*
X71426658Y-123936375D01*
X71471543Y-123936375D01*
X71538869Y-123958817D01*
X71606195Y-124026143D01*
X71628637Y-124093469D01*
X71628637Y-124138354D01*
X71606195Y-124205680D01*
X71426658Y-124385217D01*
X71673521Y-123734396D02*
X71673521Y-123689512D01*
X71695964Y-123622186D01*
X71808174Y-123509975D01*
X71875500Y-123487533D01*
X71920384Y-123487533D01*
X71987711Y-123509975D01*
X72032595Y-123554859D01*
X72077479Y-123644628D01*
X72077479Y-124183238D01*
X72369226Y-123891491D01*
X72818068Y-123442649D02*
X72548763Y-123711954D01*
X72683415Y-123577301D02*
X72212132Y-123106018D01*
X72234574Y-123218228D01*
X72234574Y-123307996D01*
X72212132Y-123375323D01*
D12*
%TO.C,J4*%
X70864238Y-59819277D02*
X70359162Y-60324353D01*
X70224475Y-60391697D01*
X70089788Y-60391697D01*
X69955101Y-60324353D01*
X69887758Y-60257010D01*
X71268299Y-60694743D02*
X70796895Y-61166147D01*
X71369315Y-60257010D02*
X70695880Y-60593727D01*
X71133612Y-61031460D01*
D13*
%TO.C,Q5*%
X111924930Y-109531737D02*
X111861454Y-109500000D01*
X111797978Y-109436524D01*
X111702765Y-109341310D01*
X111639289Y-109309572D01*
X111575813Y-109309572D01*
X111607551Y-109468262D02*
X111544075Y-109436524D01*
X111480599Y-109373048D01*
X111448862Y-109246096D01*
X111448862Y-109023931D01*
X111480599Y-108896979D01*
X111544075Y-108833504D01*
X111607551Y-108801766D01*
X111734503Y-108801766D01*
X111797978Y-108833504D01*
X111861454Y-108896979D01*
X111893192Y-109023931D01*
X111893192Y-109246096D01*
X111861454Y-109373048D01*
X111797978Y-109436524D01*
X111734503Y-109468262D01*
X111607551Y-109468262D01*
X112496212Y-108801766D02*
X112178833Y-108801766D01*
X112147095Y-109119145D01*
X112178833Y-109087407D01*
X112242309Y-109055669D01*
X112400999Y-109055669D01*
X112464474Y-109087407D01*
X112496212Y-109119145D01*
X112527950Y-109182620D01*
X112527950Y-109341310D01*
X112496212Y-109404786D01*
X112464474Y-109436524D01*
X112400999Y-109468262D01*
X112242309Y-109468262D01*
X112178833Y-109436524D01*
X112147095Y-109404786D01*
D12*
%TO.C,J5*%
X138667991Y-62947343D02*
X138162915Y-62442267D01*
X138095571Y-62307580D01*
X138095571Y-62172893D01*
X138162915Y-62038206D01*
X138230258Y-61970863D01*
X137994556Y-63620778D02*
X138331273Y-63284061D01*
X138028228Y-62913672D01*
X138028228Y-62981015D01*
X137994556Y-63082030D01*
X137826197Y-63250389D01*
X137725182Y-63284061D01*
X137657838Y-63284061D01*
X137556823Y-63250389D01*
X137388464Y-63082030D01*
X137354793Y-62981015D01*
X137354793Y-62913672D01*
X137388464Y-62812656D01*
X137556823Y-62644298D01*
X137657838Y-62610626D01*
X137725182Y-62610626D01*
D13*
%TO.C,R1*%
X87726317Y-93828798D02*
X87344802Y-93761471D01*
X87457012Y-94098103D02*
X86985728Y-93626819D01*
X87165265Y-93447282D01*
X87232591Y-93424840D01*
X87277475Y-93424840D01*
X87344802Y-93447282D01*
X87412128Y-93514609D01*
X87434570Y-93581935D01*
X87434570Y-93626819D01*
X87412128Y-93694145D01*
X87232591Y-93873682D01*
X88175159Y-93379956D02*
X87905854Y-93649261D01*
X88040506Y-93514609D02*
X87569222Y-93043325D01*
X87591665Y-93155535D01*
X87591665Y-93245303D01*
X87569222Y-93312630D01*
%TO.C,IC3*%
X104203787Y-106568262D02*
X104203787Y-105901766D01*
X104902021Y-106504786D02*
X104870283Y-106536524D01*
X104775069Y-106568262D01*
X104711593Y-106568262D01*
X104616379Y-106536524D01*
X104552904Y-106473048D01*
X104521166Y-106409572D01*
X104489428Y-106282620D01*
X104489428Y-106187407D01*
X104521166Y-106060455D01*
X104552904Y-105996979D01*
X104616379Y-105933504D01*
X104711593Y-105901766D01*
X104775069Y-105901766D01*
X104870283Y-105933504D01*
X104902021Y-105965241D01*
X105124186Y-105901766D02*
X105536779Y-105901766D01*
X105314613Y-106155669D01*
X105409827Y-106155669D01*
X105473303Y-106187407D01*
X105505041Y-106219145D01*
X105536779Y-106282620D01*
X105536779Y-106441310D01*
X105505041Y-106504786D01*
X105473303Y-106536524D01*
X105409827Y-106568262D01*
X105219400Y-106568262D01*
X105155924Y-106536524D01*
X105124186Y-106504786D01*
D12*
%TO.C,D1*%
X132152563Y-126596387D02*
X131445456Y-125889281D01*
X131613815Y-125720922D01*
X131748502Y-125653578D01*
X131883189Y-125653578D01*
X131984204Y-125687250D01*
X132152563Y-125788265D01*
X132253578Y-125889281D01*
X132354594Y-126057639D01*
X132388265Y-126158655D01*
X132388265Y-126293342D01*
X132320922Y-126428029D01*
X132152563Y-126596387D01*
X133230059Y-125518891D02*
X132825998Y-125922952D01*
X133028029Y-125720922D02*
X132320922Y-125013815D01*
X132354594Y-125182174D01*
X132354594Y-125316861D01*
X132320922Y-125417876D01*
D13*
%TO.C,C20*%
X83562641Y-89631786D02*
X83530904Y-89663524D01*
X83435690Y-89695262D01*
X83372214Y-89695262D01*
X83277000Y-89663524D01*
X83213525Y-89600048D01*
X83181787Y-89536572D01*
X83150049Y-89409620D01*
X83150049Y-89314407D01*
X83181787Y-89187455D01*
X83213525Y-89123979D01*
X83277000Y-89060504D01*
X83372214Y-89028766D01*
X83435690Y-89028766D01*
X83530904Y-89060504D01*
X83562641Y-89092241D01*
X83816545Y-89092241D02*
X83848283Y-89060504D01*
X83911758Y-89028766D01*
X84070448Y-89028766D01*
X84133924Y-89060504D01*
X84165662Y-89092241D01*
X84197400Y-89155717D01*
X84197400Y-89219193D01*
X84165662Y-89314407D01*
X83784807Y-89695262D01*
X84197400Y-89695262D01*
X84609992Y-89028766D02*
X84673468Y-89028766D01*
X84736944Y-89060504D01*
X84768682Y-89092241D01*
X84800420Y-89155717D01*
X84832158Y-89282669D01*
X84832158Y-89441358D01*
X84800420Y-89568310D01*
X84768682Y-89631786D01*
X84736944Y-89663524D01*
X84673468Y-89695262D01*
X84609992Y-89695262D01*
X84546517Y-89663524D01*
X84514779Y-89631786D01*
X84483041Y-89568310D01*
X84451303Y-89441358D01*
X84451303Y-89282669D01*
X84483041Y-89155717D01*
X84514779Y-89092241D01*
X84546517Y-89060504D01*
X84609992Y-89028766D01*
D14*
%TO.C,IC4*%
X85074523Y-85539761D02*
X83804523Y-85539761D01*
X84953571Y-84209285D02*
X85014047Y-84269761D01*
X85074523Y-84451190D01*
X85074523Y-84572142D01*
X85014047Y-84753571D01*
X84893095Y-84874523D01*
X84772142Y-84935000D01*
X84530238Y-84995476D01*
X84348809Y-84995476D01*
X84106904Y-84935000D01*
X83985952Y-84874523D01*
X83865000Y-84753571D01*
X83804523Y-84572142D01*
X83804523Y-84451190D01*
X83865000Y-84269761D01*
X83925476Y-84209285D01*
X84227857Y-83120714D02*
X85074523Y-83120714D01*
X83744047Y-83423095D02*
X84651190Y-83725476D01*
X84651190Y-82939285D01*
D15*
%TO.C,X3*%
X96132954Y-56725961D02*
X96911887Y-57894361D01*
X96911887Y-56725961D02*
X96132954Y-57894361D01*
X97245716Y-56725961D02*
X97969011Y-56725961D01*
X97579544Y-57171066D01*
X97746459Y-57171066D01*
X97857735Y-57226704D01*
X97913373Y-57282342D01*
X97969011Y-57393619D01*
X97969011Y-57671809D01*
X97913373Y-57783085D01*
X97857735Y-57838723D01*
X97746459Y-57894361D01*
X97412630Y-57894361D01*
X97301354Y-57838723D01*
X97245716Y-57783085D01*
D14*
%TO.C,IC2*%
X116104238Y-90974523D02*
X116104238Y-89704523D01*
X117434714Y-90853571D02*
X117374238Y-90914047D01*
X117192809Y-90974523D01*
X117071857Y-90974523D01*
X116890428Y-90914047D01*
X116769476Y-90793095D01*
X116709000Y-90672142D01*
X116648523Y-90430238D01*
X116648523Y-90248809D01*
X116709000Y-90006904D01*
X116769476Y-89885952D01*
X116890428Y-89765000D01*
X117071857Y-89704523D01*
X117192809Y-89704523D01*
X117374238Y-89765000D01*
X117434714Y-89825476D01*
X117918523Y-89825476D02*
X117979000Y-89765000D01*
X118099952Y-89704523D01*
X118402333Y-89704523D01*
X118523285Y-89765000D01*
X118583761Y-89825476D01*
X118644238Y-89946428D01*
X118644238Y-90067380D01*
X118583761Y-90248809D01*
X117858047Y-90974523D01*
X118644238Y-90974523D01*
D13*
%TO.C,C8*%
X100116641Y-97631786D02*
X100084904Y-97663524D01*
X99989690Y-97695262D01*
X99926214Y-97695262D01*
X99831000Y-97663524D01*
X99767525Y-97600048D01*
X99735787Y-97536572D01*
X99704049Y-97409620D01*
X99704049Y-97314407D01*
X99735787Y-97187455D01*
X99767525Y-97123979D01*
X99831000Y-97060504D01*
X99926214Y-97028766D01*
X99989690Y-97028766D01*
X100084904Y-97060504D01*
X100116641Y-97092241D01*
X100497496Y-97314407D02*
X100434021Y-97282669D01*
X100402283Y-97250931D01*
X100370545Y-97187455D01*
X100370545Y-97155717D01*
X100402283Y-97092241D01*
X100434021Y-97060504D01*
X100497496Y-97028766D01*
X100624448Y-97028766D01*
X100687924Y-97060504D01*
X100719662Y-97092241D01*
X100751400Y-97155717D01*
X100751400Y-97187455D01*
X100719662Y-97250931D01*
X100687924Y-97282669D01*
X100624448Y-97314407D01*
X100497496Y-97314407D01*
X100434021Y-97346145D01*
X100402283Y-97377883D01*
X100370545Y-97441358D01*
X100370545Y-97568310D01*
X100402283Y-97631786D01*
X100434021Y-97663524D01*
X100497496Y-97695262D01*
X100624448Y-97695262D01*
X100687924Y-97663524D01*
X100719662Y-97631786D01*
X100751400Y-97568310D01*
X100751400Y-97441358D01*
X100719662Y-97377883D01*
X100687924Y-97346145D01*
X100624448Y-97314407D01*
%TO.C,R19*%
X75050186Y-127008807D02*
X74668671Y-126941480D01*
X74780881Y-127278112D02*
X74309597Y-126806828D01*
X74489134Y-126627291D01*
X74556460Y-126604849D01*
X74601344Y-126604849D01*
X74668671Y-126627291D01*
X74735997Y-126694618D01*
X74758439Y-126761944D01*
X74758439Y-126806828D01*
X74735997Y-126874154D01*
X74556460Y-127053691D01*
X75499028Y-126559965D02*
X75229723Y-126829270D01*
X75364375Y-126694618D02*
X74893091Y-126223334D01*
X74915534Y-126335544D01*
X74915534Y-126425312D01*
X74893091Y-126492639D01*
X75723449Y-126335544D02*
X75813217Y-126245776D01*
X75835659Y-126178450D01*
X75835659Y-126133565D01*
X75813217Y-126021355D01*
X75745891Y-125909144D01*
X75566354Y-125729608D01*
X75499028Y-125707166D01*
X75454144Y-125707166D01*
X75386817Y-125729608D01*
X75297049Y-125819376D01*
X75274607Y-125886702D01*
X75274607Y-125931587D01*
X75297049Y-125998913D01*
X75409259Y-126111123D01*
X75476586Y-126133565D01*
X75521470Y-126133565D01*
X75588796Y-126111123D01*
X75678565Y-126021355D01*
X75701007Y-125954029D01*
X75701007Y-125909144D01*
X75678565Y-125841818D01*
%TO.C,SW2*%
X104740049Y-98058524D02*
X104835262Y-98090262D01*
X104993952Y-98090262D01*
X105057428Y-98058524D01*
X105089166Y-98026786D01*
X105120904Y-97963310D01*
X105120904Y-97899834D01*
X105089166Y-97836358D01*
X105057428Y-97804620D01*
X104993952Y-97772883D01*
X104867000Y-97741145D01*
X104803525Y-97709407D01*
X104771787Y-97677669D01*
X104740049Y-97614193D01*
X104740049Y-97550717D01*
X104771787Y-97487241D01*
X104803525Y-97455504D01*
X104867000Y-97423766D01*
X105025690Y-97423766D01*
X105120904Y-97455504D01*
X105343069Y-97423766D02*
X105501758Y-98090262D01*
X105628710Y-97614193D01*
X105755662Y-98090262D01*
X105914351Y-97423766D01*
X106136517Y-97487241D02*
X106168254Y-97455504D01*
X106231730Y-97423766D01*
X106390420Y-97423766D01*
X106453896Y-97455504D01*
X106485633Y-97487241D01*
X106517371Y-97550717D01*
X106517371Y-97614193D01*
X106485633Y-97709407D01*
X106104779Y-98090262D01*
X106517371Y-98090262D01*
%TO.C,R3*%
X92826317Y-98928798D02*
X92444802Y-98861471D01*
X92557012Y-99198103D02*
X92085728Y-98726819D01*
X92265265Y-98547282D01*
X92332591Y-98524840D01*
X92377475Y-98524840D01*
X92444802Y-98547282D01*
X92512128Y-98614609D01*
X92534570Y-98681935D01*
X92534570Y-98726819D01*
X92512128Y-98794145D01*
X92332591Y-98973682D01*
X92512128Y-98300419D02*
X92803875Y-98008672D01*
X92826317Y-98345303D01*
X92893643Y-98277977D01*
X92960970Y-98255535D01*
X93005854Y-98255535D01*
X93073180Y-98277977D01*
X93185390Y-98390188D01*
X93207833Y-98457514D01*
X93207833Y-98502398D01*
X93185390Y-98569724D01*
X93050738Y-98704377D01*
X92983412Y-98726819D01*
X92938528Y-98726819D01*
%TO.C,D3*%
X87403787Y-77168262D02*
X87403787Y-76501766D01*
X87562476Y-76501766D01*
X87657690Y-76533504D01*
X87721166Y-76596979D01*
X87752904Y-76660455D01*
X87784641Y-76787407D01*
X87784641Y-76882620D01*
X87752904Y-77009572D01*
X87721166Y-77073048D01*
X87657690Y-77136524D01*
X87562476Y-77168262D01*
X87403787Y-77168262D01*
X88006807Y-76501766D02*
X88419400Y-76501766D01*
X88197234Y-76755669D01*
X88292448Y-76755669D01*
X88355924Y-76787407D01*
X88387662Y-76819145D01*
X88419400Y-76882620D01*
X88419400Y-77041310D01*
X88387662Y-77104786D01*
X88355924Y-77136524D01*
X88292448Y-77168262D01*
X88102021Y-77168262D01*
X88038545Y-77136524D01*
X88006807Y-77104786D01*
%TO.C,C12*%
X103277786Y-115819565D02*
X103309524Y-115851303D01*
X103341262Y-115946517D01*
X103341262Y-116009992D01*
X103309524Y-116105206D01*
X103246048Y-116168682D01*
X103182572Y-116200420D01*
X103055620Y-116232158D01*
X102960407Y-116232158D01*
X102833455Y-116200420D01*
X102769979Y-116168682D01*
X102706504Y-116105206D01*
X102674766Y-116009992D01*
X102674766Y-115946517D01*
X102706504Y-115851303D01*
X102738241Y-115819565D01*
X103341262Y-115184807D02*
X103341262Y-115565662D01*
X103341262Y-115375234D02*
X102674766Y-115375234D01*
X102769979Y-115438710D01*
X102833455Y-115502186D01*
X102865193Y-115565662D01*
X102738241Y-114930904D02*
X102706504Y-114899166D01*
X102674766Y-114835690D01*
X102674766Y-114677000D01*
X102706504Y-114613525D01*
X102738241Y-114581787D01*
X102801717Y-114550049D01*
X102865193Y-114550049D01*
X102960407Y-114581787D01*
X103341262Y-114962641D01*
X103341262Y-114550049D01*
%TO.C,X6*%
X98801766Y-124869688D02*
X99468262Y-124425358D01*
X98801766Y-124425358D02*
X99468262Y-124869688D01*
X98801766Y-123885813D02*
X98801766Y-124012765D01*
X98833504Y-124076241D01*
X98865241Y-124107978D01*
X98960455Y-124171454D01*
X99087407Y-124203192D01*
X99341310Y-124203192D01*
X99404786Y-124171454D01*
X99436524Y-124139716D01*
X99468262Y-124076241D01*
X99468262Y-123949289D01*
X99436524Y-123885813D01*
X99404786Y-123854075D01*
X99341310Y-123822337D01*
X99182620Y-123822337D01*
X99119145Y-123854075D01*
X99087407Y-123885813D01*
X99055669Y-123949289D01*
X99055669Y-124076241D01*
X99087407Y-124139716D01*
X99119145Y-124171454D01*
X99182620Y-124203192D01*
%TO.C,C17*%
X113862641Y-91331786D02*
X113830904Y-91363524D01*
X113735690Y-91395262D01*
X113672214Y-91395262D01*
X113577000Y-91363524D01*
X113513525Y-91300048D01*
X113481787Y-91236572D01*
X113450049Y-91109620D01*
X113450049Y-91014407D01*
X113481787Y-90887455D01*
X113513525Y-90823979D01*
X113577000Y-90760504D01*
X113672214Y-90728766D01*
X113735690Y-90728766D01*
X113830904Y-90760504D01*
X113862641Y-90792241D01*
X114497400Y-91395262D02*
X114116545Y-91395262D01*
X114306972Y-91395262D02*
X114306972Y-90728766D01*
X114243496Y-90823979D01*
X114180021Y-90887455D01*
X114116545Y-90919193D01*
X114719565Y-90728766D02*
X115163896Y-90728766D01*
X114878254Y-91395262D01*
%TO.C,C9*%
X95304786Y-64865358D02*
X95336524Y-64897095D01*
X95368262Y-64992309D01*
X95368262Y-65055785D01*
X95336524Y-65150999D01*
X95273048Y-65214474D01*
X95209572Y-65246212D01*
X95082620Y-65277950D01*
X94987407Y-65277950D01*
X94860455Y-65246212D01*
X94796979Y-65214474D01*
X94733504Y-65150999D01*
X94701766Y-65055785D01*
X94701766Y-64992309D01*
X94733504Y-64897095D01*
X94765241Y-64865358D01*
X95368262Y-64547978D02*
X95368262Y-64421027D01*
X95336524Y-64357551D01*
X95304786Y-64325813D01*
X95209572Y-64262337D01*
X95082620Y-64230599D01*
X94828717Y-64230599D01*
X94765241Y-64262337D01*
X94733504Y-64294075D01*
X94701766Y-64357551D01*
X94701766Y-64484503D01*
X94733504Y-64547978D01*
X94765241Y-64579716D01*
X94828717Y-64611454D01*
X94987407Y-64611454D01*
X95050883Y-64579716D01*
X95082620Y-64547978D01*
X95114358Y-64484503D01*
X95114358Y-64357551D01*
X95082620Y-64294075D01*
X95050883Y-64262337D01*
X94987407Y-64230599D01*
%TO.C,C21*%
X83562641Y-88131786D02*
X83530904Y-88163524D01*
X83435690Y-88195262D01*
X83372214Y-88195262D01*
X83277000Y-88163524D01*
X83213525Y-88100048D01*
X83181787Y-88036572D01*
X83150049Y-87909620D01*
X83150049Y-87814407D01*
X83181787Y-87687455D01*
X83213525Y-87623979D01*
X83277000Y-87560504D01*
X83372214Y-87528766D01*
X83435690Y-87528766D01*
X83530904Y-87560504D01*
X83562641Y-87592241D01*
X83816545Y-87592241D02*
X83848283Y-87560504D01*
X83911758Y-87528766D01*
X84070448Y-87528766D01*
X84133924Y-87560504D01*
X84165662Y-87592241D01*
X84197400Y-87655717D01*
X84197400Y-87719193D01*
X84165662Y-87814407D01*
X83784807Y-88195262D01*
X84197400Y-88195262D01*
X84832158Y-88195262D02*
X84451303Y-88195262D01*
X84641730Y-88195262D02*
X84641730Y-87528766D01*
X84578254Y-87623979D01*
X84514779Y-87687455D01*
X84451303Y-87719193D01*
%TO.C,R20*%
X132374396Y-67360324D02*
X131992881Y-67292997D01*
X132105091Y-67629629D02*
X131633807Y-67158345D01*
X131813344Y-66978808D01*
X131880670Y-66956366D01*
X131925554Y-66956366D01*
X131992881Y-66978808D01*
X132060207Y-67046135D01*
X132082649Y-67113461D01*
X132082649Y-67158345D01*
X132060207Y-67225671D01*
X131880670Y-67405208D01*
X132127533Y-66754387D02*
X132127533Y-66709503D01*
X132149975Y-66642177D01*
X132262186Y-66529967D01*
X132329512Y-66507524D01*
X132374396Y-66507524D01*
X132441722Y-66529967D01*
X132486607Y-66574851D01*
X132531491Y-66664619D01*
X132531491Y-67203229D01*
X132823238Y-66911482D01*
X132643701Y-66148451D02*
X132688585Y-66103567D01*
X132755912Y-66081125D01*
X132800796Y-66081125D01*
X132868122Y-66103567D01*
X132980332Y-66170893D01*
X133092543Y-66283104D01*
X133159869Y-66395314D01*
X133182311Y-66462640D01*
X133182311Y-66507524D01*
X133159869Y-66574851D01*
X133114985Y-66619735D01*
X133047659Y-66642177D01*
X133002775Y-66642177D01*
X132935448Y-66619735D01*
X132823238Y-66552409D01*
X132711027Y-66440198D01*
X132643701Y-66327988D01*
X132621259Y-66260661D01*
X132621259Y-66215777D01*
X132643701Y-66148451D01*
%TO.C,C3*%
X105504786Y-88665358D02*
X105536524Y-88697095D01*
X105568262Y-88792309D01*
X105568262Y-88855785D01*
X105536524Y-88950999D01*
X105473048Y-89014474D01*
X105409572Y-89046212D01*
X105282620Y-89077950D01*
X105187407Y-89077950D01*
X105060455Y-89046212D01*
X104996979Y-89014474D01*
X104933504Y-88950999D01*
X104901766Y-88855785D01*
X104901766Y-88792309D01*
X104933504Y-88697095D01*
X104965241Y-88665358D01*
X104901766Y-88443192D02*
X104901766Y-88030599D01*
X105155669Y-88252765D01*
X105155669Y-88157551D01*
X105187407Y-88094075D01*
X105219145Y-88062337D01*
X105282620Y-88030599D01*
X105441310Y-88030599D01*
X105504786Y-88062337D01*
X105536524Y-88094075D01*
X105568262Y-88157551D01*
X105568262Y-88347978D01*
X105536524Y-88411454D01*
X105504786Y-88443192D01*
%TO.C,C16*%
X108177786Y-96769565D02*
X108209524Y-96801303D01*
X108241262Y-96896517D01*
X108241262Y-96959992D01*
X108209524Y-97055206D01*
X108146048Y-97118682D01*
X108082572Y-97150420D01*
X107955620Y-97182158D01*
X107860407Y-97182158D01*
X107733455Y-97150420D01*
X107669979Y-97118682D01*
X107606504Y-97055206D01*
X107574766Y-96959992D01*
X107574766Y-96896517D01*
X107606504Y-96801303D01*
X107638241Y-96769565D01*
X108241262Y-96134807D02*
X108241262Y-96515662D01*
X108241262Y-96325234D02*
X107574766Y-96325234D01*
X107669979Y-96388710D01*
X107733455Y-96452186D01*
X107765193Y-96515662D01*
X107574766Y-95563525D02*
X107574766Y-95690476D01*
X107606504Y-95753952D01*
X107638241Y-95785690D01*
X107733455Y-95849166D01*
X107860407Y-95880904D01*
X108114310Y-95880904D01*
X108177786Y-95849166D01*
X108209524Y-95817428D01*
X108241262Y-95753952D01*
X108241262Y-95627000D01*
X108209524Y-95563525D01*
X108177786Y-95531787D01*
X108114310Y-95500049D01*
X107955620Y-95500049D01*
X107892145Y-95531787D01*
X107860407Y-95563525D01*
X107828669Y-95627000D01*
X107828669Y-95753952D01*
X107860407Y-95817428D01*
X107892145Y-95849166D01*
X107955620Y-95880904D01*
%TO.C,C22*%
X112874434Y-92927786D02*
X112842696Y-92959524D01*
X112747482Y-92991262D01*
X112684007Y-92991262D01*
X112588793Y-92959524D01*
X112525317Y-92896048D01*
X112493579Y-92832572D01*
X112461841Y-92705620D01*
X112461841Y-92610407D01*
X112493579Y-92483455D01*
X112525317Y-92419979D01*
X112588793Y-92356504D01*
X112684007Y-92324766D01*
X112747482Y-92324766D01*
X112842696Y-92356504D01*
X112874434Y-92388241D01*
X113128337Y-92388241D02*
X113160075Y-92356504D01*
X113223551Y-92324766D01*
X113382241Y-92324766D01*
X113445716Y-92356504D01*
X113477454Y-92388241D01*
X113509192Y-92451717D01*
X113509192Y-92515193D01*
X113477454Y-92610407D01*
X113096599Y-92991262D01*
X113509192Y-92991262D01*
X113763095Y-92388241D02*
X113794833Y-92356504D01*
X113858309Y-92324766D01*
X114016999Y-92324766D01*
X114080474Y-92356504D01*
X114112212Y-92388241D01*
X114143950Y-92451717D01*
X114143950Y-92515193D01*
X114112212Y-92610407D01*
X113731358Y-92991262D01*
X114143950Y-92991262D01*
D12*
%TO.C,Q2*%
X75867528Y-64048781D02*
X75901200Y-64149796D01*
X75901200Y-64284483D01*
X75901200Y-64486514D01*
X75934872Y-64587529D01*
X76002215Y-64654872D01*
X76136902Y-64452842D02*
X76170574Y-64553857D01*
X76170574Y-64688544D01*
X76069559Y-64856903D01*
X75833856Y-65092605D01*
X75665498Y-65193620D01*
X75530811Y-65193620D01*
X75429795Y-65159949D01*
X75295108Y-65025262D01*
X75261437Y-64924246D01*
X75261437Y-64789559D01*
X75362452Y-64621201D01*
X75598154Y-64385498D01*
X75766513Y-64284483D01*
X75901200Y-64284483D01*
X76002215Y-64318155D01*
X76136902Y-64452842D01*
X74924719Y-64520185D02*
X74857376Y-64520185D01*
X74756360Y-64486514D01*
X74588002Y-64318155D01*
X74554330Y-64217140D01*
X74554330Y-64149796D01*
X74588002Y-64048781D01*
X74655345Y-63981437D01*
X74790032Y-63914094D01*
X75598154Y-63914094D01*
X75160421Y-63476361D01*
%TO.C,J6*%
X64900524Y-130531727D02*
X65405600Y-131036803D01*
X65472944Y-131171490D01*
X65472944Y-131306177D01*
X65405600Y-131440864D01*
X65338257Y-131508207D01*
X65540287Y-129891963D02*
X65405600Y-130026650D01*
X65371929Y-130127666D01*
X65371929Y-130195009D01*
X65405600Y-130363368D01*
X65506616Y-130531727D01*
X65775990Y-130801101D01*
X65877005Y-130834772D01*
X65944348Y-130834772D01*
X66045364Y-130801101D01*
X66180051Y-130666414D01*
X66213722Y-130565398D01*
X66213722Y-130498055D01*
X66180051Y-130397040D01*
X66011692Y-130228681D01*
X65910677Y-130195009D01*
X65843333Y-130195009D01*
X65742318Y-130228681D01*
X65607631Y-130363368D01*
X65573959Y-130464383D01*
X65573959Y-130531727D01*
X65607631Y-130632742D01*
%TO.C,Q1*%
X130157512Y-126177174D02*
X130191184Y-126278189D01*
X130191184Y-126412876D01*
X130191184Y-126614907D01*
X130224856Y-126715922D01*
X130292199Y-126783265D01*
X130426886Y-126581235D02*
X130460558Y-126682250D01*
X130460558Y-126816937D01*
X130359543Y-126985296D01*
X130123840Y-127220998D01*
X129955482Y-127322013D01*
X129820795Y-127322013D01*
X129719779Y-127288342D01*
X129585092Y-127153655D01*
X129551421Y-127052639D01*
X129551421Y-126917952D01*
X129652436Y-126749594D01*
X129888138Y-126513891D01*
X130056497Y-126412876D01*
X130191184Y-126412876D01*
X130292199Y-126446548D01*
X130426886Y-126581235D01*
X129450405Y-125604754D02*
X129854466Y-126008815D01*
X129652436Y-125806785D02*
X128945329Y-126513891D01*
X129113688Y-126480220D01*
X129248375Y-126480220D01*
X129349390Y-126513891D01*
D14*
%TO.C,IC1*%
X108824523Y-91639761D02*
X107554523Y-91639761D01*
X108703571Y-90309285D02*
X108764047Y-90369761D01*
X108824523Y-90551190D01*
X108824523Y-90672142D01*
X108764047Y-90853571D01*
X108643095Y-90974523D01*
X108522142Y-91035000D01*
X108280238Y-91095476D01*
X108098809Y-91095476D01*
X107856904Y-91035000D01*
X107735952Y-90974523D01*
X107615000Y-90853571D01*
X107554523Y-90672142D01*
X107554523Y-90551190D01*
X107615000Y-90369761D01*
X107675476Y-90309285D01*
X108824523Y-89099761D02*
X108824523Y-89825476D01*
X108824523Y-89462619D02*
X107554523Y-89462619D01*
X107735952Y-89583571D01*
X107856904Y-89704523D01*
X107917380Y-89825476D01*
D12*
%TO.C,Q4*%
X134480536Y-67992683D02*
X134379521Y-68026355D01*
X134244834Y-68026355D01*
X134042803Y-68026355D01*
X133941788Y-68060027D01*
X133874445Y-68127370D01*
X134076475Y-68262057D02*
X133975460Y-68295729D01*
X133840773Y-68295729D01*
X133672414Y-68194714D01*
X133436712Y-67959011D01*
X133335697Y-67790653D01*
X133335697Y-67655966D01*
X133369368Y-67554950D01*
X133504055Y-67420263D01*
X133605071Y-67386592D01*
X133739758Y-67386592D01*
X133908116Y-67487607D01*
X134143819Y-67723309D01*
X134244834Y-67891668D01*
X134244834Y-68026355D01*
X134211162Y-68127370D01*
X134076475Y-68262057D01*
X134514208Y-66881515D02*
X134985612Y-67352920D01*
X134076475Y-66780500D02*
X134413193Y-67453935D01*
X134850925Y-67016202D01*
D13*
%TO.C,C19*%
X83631785Y-78287358D02*
X83663523Y-78319095D01*
X83695261Y-78414309D01*
X83695261Y-78477785D01*
X83663523Y-78572999D01*
X83600047Y-78636474D01*
X83536571Y-78668212D01*
X83409619Y-78699950D01*
X83314406Y-78699950D01*
X83187454Y-78668212D01*
X83123978Y-78636474D01*
X83060503Y-78572999D01*
X83028765Y-78477785D01*
X83028765Y-78414309D01*
X83060503Y-78319095D01*
X83092240Y-78287358D01*
X83695261Y-77652599D02*
X83695261Y-78033454D01*
X83695261Y-77843027D02*
X83028765Y-77843027D01*
X83123978Y-77906503D01*
X83187454Y-77969978D01*
X83219192Y-78033454D01*
X83695261Y-77335220D02*
X83695261Y-77208269D01*
X83663523Y-77144793D01*
X83631785Y-77113055D01*
X83536571Y-77049579D01*
X83409619Y-77017841D01*
X83155716Y-77017841D01*
X83092240Y-77049579D01*
X83060503Y-77081317D01*
X83028765Y-77144793D01*
X83028765Y-77271745D01*
X83060503Y-77335220D01*
X83092240Y-77366958D01*
X83155716Y-77398696D01*
X83314406Y-77398696D01*
X83377882Y-77366958D01*
X83409619Y-77335220D01*
X83441357Y-77271745D01*
X83441357Y-77144793D01*
X83409619Y-77081317D01*
X83377882Y-77049579D01*
X83314406Y-77017841D01*
%TO.C,D4*%
X98103787Y-104768262D02*
X98103787Y-104101766D01*
X98262476Y-104101766D01*
X98357690Y-104133504D01*
X98421166Y-104196979D01*
X98452904Y-104260455D01*
X98484641Y-104387407D01*
X98484641Y-104482620D01*
X98452904Y-104609572D01*
X98421166Y-104673048D01*
X98357690Y-104736524D01*
X98262476Y-104768262D01*
X98103787Y-104768262D01*
X99055924Y-104323931D02*
X99055924Y-104768262D01*
X98897234Y-104070028D02*
X98738545Y-104546096D01*
X99151137Y-104546096D01*
%TO.C,R18*%
X127045493Y-70067274D02*
X126663978Y-69999948D01*
X126776188Y-70336579D02*
X126304905Y-69865296D01*
X126484441Y-69685759D01*
X126551767Y-69663317D01*
X126596652Y-69663317D01*
X126663978Y-69685759D01*
X126731304Y-69753085D01*
X126753746Y-69820411D01*
X126753746Y-69865296D01*
X126731304Y-69932622D01*
X126551767Y-70112159D01*
X127494335Y-69618433D02*
X127225030Y-69887738D01*
X127359683Y-69753085D02*
X126888399Y-69281801D01*
X126910841Y-69394012D01*
X126910841Y-69483780D01*
X126888399Y-69551106D01*
X127494335Y-69079823D02*
X127427009Y-69102265D01*
X127382125Y-69102265D01*
X127314798Y-69079823D01*
X127292356Y-69057380D01*
X127269914Y-68990054D01*
X127269914Y-68945170D01*
X127292356Y-68877844D01*
X127382125Y-68788075D01*
X127449451Y-68765633D01*
X127494335Y-68765633D01*
X127561661Y-68788075D01*
X127584103Y-68810518D01*
X127606546Y-68877844D01*
X127606546Y-68922728D01*
X127584103Y-68990054D01*
X127494335Y-69079823D01*
X127471893Y-69147149D01*
X127471893Y-69192033D01*
X127494335Y-69259359D01*
X127584103Y-69349128D01*
X127651430Y-69371570D01*
X127696314Y-69371570D01*
X127763640Y-69349128D01*
X127853409Y-69259359D01*
X127875851Y-69192033D01*
X127875851Y-69147149D01*
X127853409Y-69079823D01*
X127763640Y-68990054D01*
X127696314Y-68967612D01*
X127651430Y-68967612D01*
X127584103Y-68990054D01*
%TO.C,R16*%
X127871415Y-124074015D02*
X127804089Y-124455530D01*
X128140720Y-124343320D02*
X127669437Y-124814603D01*
X127489900Y-124635067D01*
X127467458Y-124567741D01*
X127467458Y-124522856D01*
X127489900Y-124455530D01*
X127557226Y-124388204D01*
X127624552Y-124365762D01*
X127669437Y-124365762D01*
X127736763Y-124388204D01*
X127916300Y-124567741D01*
X127422574Y-123625173D02*
X127691879Y-123894478D01*
X127557226Y-123759825D02*
X127085942Y-124231109D01*
X127198153Y-124208667D01*
X127287921Y-124208667D01*
X127355247Y-124231109D01*
X126547332Y-123692499D02*
X126637101Y-123782267D01*
X126704427Y-123804710D01*
X126749311Y-123804710D01*
X126861521Y-123782267D01*
X126973732Y-123714941D01*
X127153269Y-123535405D01*
X127175711Y-123468078D01*
X127175711Y-123423194D01*
X127153269Y-123355868D01*
X127063500Y-123266099D01*
X126996174Y-123243657D01*
X126951290Y-123243657D01*
X126883964Y-123266099D01*
X126771753Y-123378310D01*
X126749311Y-123445636D01*
X126749311Y-123490520D01*
X126771753Y-123557847D01*
X126861521Y-123647615D01*
X126928848Y-123670057D01*
X126973732Y-123670057D01*
X127041058Y-123647615D01*
%TO.C,R14*%
X130610601Y-120873503D02*
X130543274Y-121255018D01*
X130879906Y-121142808D02*
X130408622Y-121614092D01*
X130229085Y-121434555D01*
X130206643Y-121367229D01*
X130206643Y-121322345D01*
X130229085Y-121255018D01*
X130296412Y-121187692D01*
X130363738Y-121165250D01*
X130408622Y-121165250D01*
X130475948Y-121187692D01*
X130655485Y-121367229D01*
X130161759Y-120424661D02*
X130431064Y-120693966D01*
X130296412Y-120559314D02*
X129825128Y-121030598D01*
X129937338Y-121008155D01*
X130027106Y-121008155D01*
X130094433Y-121030598D01*
X129443612Y-120334893D02*
X129757801Y-120020704D01*
X129376286Y-120626640D02*
X129825128Y-120402219D01*
X129533381Y-120110472D01*
%TO.C,C14*%
X122888269Y-79067091D02*
X122888269Y-79111975D01*
X122843385Y-79201743D01*
X122798501Y-79246627D01*
X122708732Y-79291511D01*
X122618964Y-79291511D01*
X122551638Y-79269069D01*
X122439427Y-79201743D01*
X122372101Y-79134417D01*
X122304775Y-79022206D01*
X122282333Y-78954880D01*
X122282333Y-78865112D01*
X122327217Y-78775343D01*
X122372101Y-78730459D01*
X122461869Y-78685575D01*
X122506753Y-78685575D01*
X123381995Y-78663133D02*
X123112690Y-78932438D01*
X123247342Y-78797786D02*
X122776058Y-78326502D01*
X122798501Y-78438712D01*
X122798501Y-78528480D01*
X122776058Y-78595807D01*
X123471763Y-77944986D02*
X123785952Y-78259175D01*
X123180016Y-77877660D02*
X123404437Y-78326502D01*
X123696184Y-78034755D01*
%TO.C,R13*%
X110368262Y-107465358D02*
X110050883Y-107687523D01*
X110368262Y-107846212D02*
X109701766Y-107846212D01*
X109701766Y-107592309D01*
X109733504Y-107528833D01*
X109765241Y-107497095D01*
X109828717Y-107465358D01*
X109923931Y-107465358D01*
X109987407Y-107497095D01*
X110019145Y-107528833D01*
X110050883Y-107592309D01*
X110050883Y-107846212D01*
X110368262Y-106830599D02*
X110368262Y-107211454D01*
X110368262Y-107021027D02*
X109701766Y-107021027D01*
X109796979Y-107084503D01*
X109860455Y-107147978D01*
X109892193Y-107211454D01*
X109701766Y-106608434D02*
X109701766Y-106195841D01*
X109955669Y-106418007D01*
X109955669Y-106322793D01*
X109987407Y-106259317D01*
X110019145Y-106227579D01*
X110082620Y-106195841D01*
X110241310Y-106195841D01*
X110304786Y-106227579D01*
X110336524Y-106259317D01*
X110368262Y-106322793D01*
X110368262Y-106513220D01*
X110336524Y-106576696D01*
X110304786Y-106608434D01*
%TO.C,C23*%
X119971786Y-93619565D02*
X120003524Y-93651303D01*
X120035262Y-93746517D01*
X120035262Y-93809992D01*
X120003524Y-93905206D01*
X119940048Y-93968682D01*
X119876572Y-94000420D01*
X119749620Y-94032158D01*
X119654407Y-94032158D01*
X119527455Y-94000420D01*
X119463979Y-93968682D01*
X119400504Y-93905206D01*
X119368766Y-93809992D01*
X119368766Y-93746517D01*
X119400504Y-93651303D01*
X119432241Y-93619565D01*
X119432241Y-93365662D02*
X119400504Y-93333924D01*
X119368766Y-93270448D01*
X119368766Y-93111758D01*
X119400504Y-93048283D01*
X119432241Y-93016545D01*
X119495717Y-92984807D01*
X119559193Y-92984807D01*
X119654407Y-93016545D01*
X120035262Y-93397400D01*
X120035262Y-92984807D01*
X119368766Y-92762641D02*
X119368766Y-92350049D01*
X119622669Y-92572214D01*
X119622669Y-92477000D01*
X119654407Y-92413525D01*
X119686145Y-92381787D01*
X119749620Y-92350049D01*
X119908310Y-92350049D01*
X119971786Y-92381787D01*
X120003524Y-92413525D01*
X120035262Y-92477000D01*
X120035262Y-92667428D01*
X120003524Y-92730904D01*
X119971786Y-92762641D01*
D12*
%TO.C,U1*%
X116132605Y-78780811D02*
X116705025Y-79353231D01*
X116806040Y-79386903D01*
X116873384Y-79386903D01*
X116974399Y-79353231D01*
X117109086Y-79218544D01*
X117142758Y-79117529D01*
X117142758Y-79050185D01*
X117109086Y-78949170D01*
X116536666Y-78376750D01*
X117950880Y-78376750D02*
X117546819Y-78780811D01*
X117748849Y-78578781D02*
X117041743Y-77871674D01*
X117075414Y-78040033D01*
X117075414Y-78174720D01*
X117041743Y-78275735D01*
D13*
%TO.C,R15*%
X79117554Y-70308390D02*
X79050228Y-70689905D01*
X79386859Y-70577695D02*
X78915576Y-71048978D01*
X78736039Y-70869442D01*
X78713597Y-70802116D01*
X78713597Y-70757231D01*
X78736039Y-70689905D01*
X78803365Y-70622579D01*
X78870691Y-70600137D01*
X78915576Y-70600137D01*
X78982902Y-70622579D01*
X79162439Y-70802116D01*
X78668713Y-69859548D02*
X78938018Y-70128853D01*
X78803365Y-69994200D02*
X78332081Y-70465484D01*
X78444292Y-70443042D01*
X78534060Y-70443042D01*
X78601386Y-70465484D01*
X77771029Y-69904432D02*
X77995450Y-70128853D01*
X78242313Y-69926874D01*
X78197429Y-69926874D01*
X78130103Y-69904432D01*
X78017892Y-69792222D01*
X77995450Y-69724895D01*
X77995450Y-69680011D01*
X78017892Y-69612685D01*
X78130103Y-69500474D01*
X78197429Y-69478032D01*
X78242313Y-69478032D01*
X78309639Y-69500474D01*
X78421850Y-69612685D01*
X78444292Y-69680011D01*
X78444292Y-69724895D01*
D11*
%TO.C,JP1*%
X90700000Y-87800000D02*
X93500000Y-87800000D01*
X94150000Y-88500000D02*
X94150000Y-89100000D01*
X93500000Y-89800000D02*
X90700000Y-89800000D01*
X90050000Y-89100000D02*
X90050000Y-88500000D01*
X94150000Y-88500000D02*
G75*
G03*
X93450000Y-87800000I-700000J0D01*
G01*
X90750000Y-87800000D02*
G75*
G03*
X90050000Y-88500000I-1J-699999D01*
G01*
X93450000Y-89800000D02*
G75*
G03*
X94150000Y-89100000I0J700000D01*
G01*
X90050000Y-89100000D02*
G75*
G03*
X90750000Y-89800000I699999J-1D01*
G01*
D16*
%TO.C,X1*%
X82600000Y-99000000D02*
X78600000Y-99000000D01*
X75100000Y-97250000D02*
X75100000Y-92750000D01*
X80100000Y-91850000D02*
X80100000Y-93250000D01*
X80100000Y-98150000D02*
X82600000Y-98150000D01*
X82600000Y-91850000D02*
X80100000Y-91850000D01*
D17*
X82164000Y-92650500D02*
X81211500Y-92650500D01*
X81656000Y-93095000D02*
X81656000Y-92206000D01*
D16*
X80100000Y-96750000D02*
X80100000Y-98150000D01*
D17*
X81656000Y-97794000D02*
X81656000Y-96905000D01*
D16*
X78600000Y-91000000D02*
X82600000Y-91000000D01*
X82600000Y-91000000D02*
X82600000Y-91850000D01*
X82600000Y-98150000D02*
X82600000Y-99000000D01*
D11*
%TO.C,L1*%
X78990000Y-83013748D02*
X78990000Y-85786252D01*
X82410000Y-83013748D02*
X82410000Y-85786252D01*
D17*
%TO.C,C1*%
X92992000Y-66850001D02*
X94008000Y-66850001D01*
%TO.C,R8*%
X89272792Y-83527208D02*
X88707106Y-84092894D01*
D16*
%TO.C,U2*%
X99350000Y-101800000D02*
X99350000Y-103400000D01*
X96050000Y-101800000D02*
X96050000Y-103400000D01*
X97300000Y-101550000D02*
X98100000Y-101550000D01*
D17*
%TO.C,R11*%
X87717157Y-85082843D02*
X88282843Y-84517157D01*
%TO.C,R12*%
X102700000Y-106100000D02*
X102700000Y-105300000D01*
D11*
%TO.C,D5*%
X133447388Y-63782387D02*
X133914079Y-63315696D01*
X136084896Y-63138920D02*
X135087876Y-62141899D01*
X134621185Y-62608590D02*
X135087876Y-62141899D01*
X133447388Y-63782387D02*
X134882815Y-65217814D01*
D17*
%TO.C,C6*%
X97800000Y-106892000D02*
X97800000Y-107908000D01*
%TO.C,C18*%
X84450000Y-87500000D02*
X84450000Y-86700000D01*
%TO.C,C13*%
X91392000Y-66850001D02*
X92408000Y-66850001D01*
%TO.C,R5*%
X106600000Y-114000000D02*
X106600000Y-113200000D01*
%TO.C,R2*%
X111450000Y-89900000D02*
X111450000Y-89100000D01*
%TO.C,C11*%
X106650000Y-114800000D02*
X106650000Y-115600000D01*
D11*
%TO.C,D2*%
X70495753Y-63895816D02*
X70029062Y-63429125D01*
X71669550Y-65069613D02*
X73104977Y-63634186D01*
X71026083Y-62432105D02*
X70029062Y-63429125D01*
X71669550Y-65069613D02*
X71202859Y-64602922D01*
D17*
%TO.C,C2*%
X97450000Y-99092000D02*
X97450000Y-100108000D01*
D16*
%TO.C,R9*%
X97600000Y-113200000D02*
X94800000Y-113200000D01*
X94800000Y-109400000D02*
X97600000Y-109400000D01*
D17*
%TO.C,C7*%
X119745584Y-79336396D02*
X120311270Y-79902082D01*
%TO.C,C4*%
X109550000Y-99850000D02*
X110350000Y-99850000D01*
%TO.C,C5*%
X92493072Y-95806066D02*
X91927386Y-96371752D01*
D11*
%TO.C,Q6*%
X70029494Y-126562591D02*
X70489114Y-126102972D01*
X72235668Y-128768765D02*
X72695287Y-128309145D01*
X70029494Y-126562591D02*
X68845091Y-127746995D01*
X72235668Y-128768765D02*
X71776048Y-129228384D01*
D16*
%TO.C,Q3*%
X93489600Y-108172400D02*
X93489600Y-107163600D01*
X94810400Y-106227600D02*
X94810400Y-106986400D01*
X93489600Y-106036400D02*
X93489600Y-105027600D01*
X93489600Y-105027600D02*
X94802400Y-105027600D01*
X94802400Y-108172400D02*
X93489600Y-108172400D01*
D17*
%TO.C,R4*%
X106150000Y-87500000D02*
X106150000Y-88300000D01*
%TO.C,C15*%
X110250000Y-93500000D02*
X109450000Y-93500000D01*
%TO.C,R6*%
X96100000Y-115000000D02*
X96100000Y-115800000D01*
%TO.C,R10*%
X89950000Y-76700000D02*
X89950000Y-75900000D01*
D16*
%TO.C,SW1*%
X93825400Y-114000000D02*
X93825400Y-118200000D01*
X90774600Y-118200000D02*
X90774600Y-114000000D01*
D17*
%TO.C,R17*%
X75418198Y-69383884D02*
X75983884Y-68818198D01*
%TO.C,R7*%
X101100000Y-103500000D02*
X101100000Y-104300000D01*
D11*
%TO.C,D6*%
X70136432Y-129695944D02*
X68701005Y-128260517D01*
X70136432Y-129695944D02*
X69669741Y-130162635D01*
X67498924Y-130339411D02*
X68495944Y-131336432D01*
X68962635Y-130869741D02*
X68495944Y-131336432D01*
D17*
%TO.C,R21*%
X73260525Y-124773162D02*
X72694839Y-124207476D01*
D16*
%TO.C,Q5*%
X110900000Y-110200000D02*
X110900000Y-109300000D01*
X113100000Y-110200000D02*
X113100000Y-109300000D01*
X113600000Y-109400000D02*
G75*
G03*
X113600000Y-109400000I-100000J0D01*
G01*
D17*
%TO.C,R1*%
X88816116Y-95381802D02*
X89381802Y-94816116D01*
D16*
%TO.C,IC3*%
X108400000Y-107400000D02*
X108050000Y-107400000D01*
X108400000Y-107750000D02*
X108400000Y-107400000D01*
X104750000Y-111400000D02*
X104400000Y-111400000D01*
X104400000Y-111400000D02*
X104400000Y-111050000D01*
X108050000Y-111400000D02*
X108400000Y-111400000D01*
X108400000Y-111050000D02*
X108400000Y-111400000D01*
X104750000Y-107400000D02*
X104400000Y-107750000D01*
X104444200Y-107317200D02*
G75*
G03*
X104444200Y-107317200I-127000J0D01*
G01*
D11*
%TO.C,D1*%
X133464752Y-125761665D02*
X133931443Y-126228356D01*
X134108219Y-128399173D02*
X135105240Y-127402153D01*
X134638549Y-126935462D02*
X135105240Y-127402153D01*
X133464752Y-125761665D02*
X132029325Y-127197092D01*
D17*
%TO.C,C20*%
X81150000Y-89200000D02*
X81150000Y-90000000D01*
D18*
%TO.C,IC4*%
X83050000Y-83875000D02*
X85950000Y-83875000D01*
X85950000Y-83875000D02*
X85950000Y-84725000D01*
X83050000Y-84725000D02*
X83050000Y-83875000D01*
X85950000Y-84725000D02*
X83050000Y-84725000D01*
X82925000Y-86125000D02*
X82925000Y-85075000D01*
D19*
%TO.C,X3*%
X96150000Y-59200000D02*
X109350000Y-59200000D01*
X109350000Y-59200000D02*
X109350000Y-64600000D01*
X96150000Y-64600000D02*
X96150000Y-59200000D01*
D20*
%TO.C,IC2*%
X117594000Y-89000000D02*
X117594000Y-89000000D01*
X117594000Y-89100000D02*
X117594000Y-89100000D01*
X117594000Y-89000000D02*
G75*
G03*
X117594000Y-89100000I0J-50000D01*
G01*
X117594000Y-89100000D02*
G75*
G03*
X117594000Y-89000000I0J50000D01*
G01*
D17*
%TO.C,C8*%
X97450000Y-97092000D02*
X97450000Y-98108000D01*
%TO.C,R19*%
X73810696Y-125323333D02*
X74376382Y-125889019D01*
D16*
%TO.C,SW2*%
X104450000Y-98374600D02*
X108650000Y-98374600D01*
X108650000Y-101425400D02*
X104450000Y-101425400D01*
D17*
%TO.C,R3*%
X90902081Y-97467767D02*
X91467767Y-96902081D01*
%TO.C,D3*%
G36*
X90111680Y-77500000D02*
G01*
X89596000Y-77912544D01*
X89596000Y-77087456D01*
X90111680Y-77500000D01*
G37*
G36*
X90116700Y-77881000D02*
G01*
X89989700Y-77881000D01*
X89989700Y-77119000D01*
X90116700Y-77119000D01*
X90116700Y-77881000D01*
G37*
%TO.C,C12*%
X103900000Y-112550000D02*
X103100000Y-112550000D01*
D15*
%TO.C,X6*%
X106720000Y-119960000D02*
X106720000Y-121310000D01*
X97780000Y-121310000D02*
X97780000Y-119960000D01*
X97780000Y-125310000D02*
X97780000Y-123960000D01*
X106720000Y-123960000D02*
X106720000Y-125310000D01*
X106720000Y-125310000D02*
X97780000Y-125310000D01*
D17*
%TO.C,C17*%
X111450000Y-90900000D02*
X111450000Y-91700000D01*
%TO.C,C9*%
X94700000Y-66950000D02*
X95500000Y-66950000D01*
%TO.C,C21*%
X81150000Y-87700000D02*
X81150000Y-88500000D01*
%TO.C,R20*%
X130318198Y-68716116D02*
X130883884Y-69281802D01*
%TO.C,C3*%
X105600000Y-90750000D02*
X106400000Y-90750000D01*
%TO.C,C16*%
X108800000Y-93500000D02*
X108000000Y-93500000D01*
%TO.C,C22*%
X116144000Y-93550000D02*
X116144000Y-92750000D01*
D11*
%TO.C,Q2*%
X74818991Y-64962632D02*
X73634587Y-63778229D01*
X74818991Y-64962632D02*
X75278610Y-65422252D01*
X72612817Y-67168806D02*
X72153198Y-66709186D01*
X72612817Y-67168806D02*
X73072437Y-67628425D01*
%TO.C,Q1*%
X132503087Y-123696913D02*
X132043467Y-123237294D01*
X132503087Y-123696913D02*
X132962706Y-124156533D01*
X130296913Y-125903087D02*
X131481317Y-127087490D01*
X130296913Y-125903087D02*
X129837294Y-125443467D01*
D20*
%TO.C,IC1*%
X109000000Y-89000000D02*
X109000000Y-89000000D01*
X109000000Y-89100000D02*
X109000000Y-89100000D01*
X109000000Y-89100000D02*
G75*
G03*
X109000000Y-89000000I0J50000D01*
G01*
X109000000Y-89000000D02*
G75*
G03*
X109000000Y-89100000I0J-50000D01*
G01*
D11*
%TO.C,Q4*%
X131360512Y-64737972D02*
X131820132Y-64278353D01*
X133566686Y-66944146D02*
X134751089Y-65759742D01*
X133566686Y-66944146D02*
X133107066Y-67403765D01*
X131360512Y-64737972D02*
X130900893Y-65197592D01*
D17*
%TO.C,C19*%
X83199999Y-80700000D02*
X83999999Y-80700000D01*
D16*
%TO.C,D4*%
X98250000Y-105700000D02*
X98850000Y-105300000D01*
X98850000Y-105300000D02*
X98850000Y-106100000D01*
X97677000Y-105000000D02*
X99423000Y-105000000D01*
X99423000Y-106400000D02*
X97677000Y-106400000D01*
X98850000Y-106100000D02*
X98250000Y-105700000D01*
G36*
X98851600Y-106089841D02*
G01*
X98266838Y-105700000D01*
X98851600Y-105310159D01*
X98851600Y-106089841D01*
G37*
G36*
X98250000Y-106200000D02*
G01*
X98050000Y-106200000D01*
X98050000Y-105200000D01*
X98250000Y-105200000D01*
X98250000Y-106200000D01*
G37*
D17*
%TO.C,R18*%
X129752513Y-68150431D02*
X129186827Y-67584745D01*
%TO.C,R16*%
X128500863Y-122678679D02*
X127935177Y-123244365D01*
%TO.C,R14*%
X129066548Y-122112994D02*
X129632234Y-121547308D01*
%TO.C,C14*%
X120876955Y-80467767D02*
X121442641Y-81033453D01*
D16*
%TO.C,R13*%
X110600000Y-104600000D02*
X113400000Y-104600000D01*
X113400000Y-108400000D02*
X110600000Y-108400000D01*
D17*
%TO.C,C23*%
X120594000Y-90350000D02*
X119794000Y-90350000D01*
D18*
%TO.C,U1*%
X119936801Y-79033047D02*
G75*
G03*
X119936801Y-79033047I-100000J0D01*
G01*
D19*
X114548350Y-79230330D02*
X114725126Y-79053553D01*
X117730330Y-76048350D02*
X118437437Y-76755456D01*
X117553553Y-76225126D02*
X117730330Y-76048350D01*
X115962563Y-80644544D02*
X116669670Y-81351650D01*
X116669670Y-81351650D02*
X116846447Y-81174874D01*
X119144544Y-77462563D02*
X119851650Y-78169670D01*
X119851650Y-78169670D02*
X119674874Y-78346447D01*
X115255456Y-79937437D02*
X114548350Y-79230330D01*
D17*
%TO.C,R15*%
X77200711Y-67601371D02*
X76635025Y-68167057D01*
%TD*%
M02*
