%TF.GenerationSoftware,KiCad,Pcbnew,6.0.9-8da3e8f707~117~ubuntu20.04.1*%
%TF.CreationDate,2022-12-05T22:16:00+00:00*%
%TF.ProjectId,drone,64726f6e-652e-46b6-9963-61645f706362,rev?*%
%TF.SameCoordinates,Original*%
%TF.FileFunction,Paste,Top*%
%TF.FilePolarity,Positive*%
%FSLAX46Y46*%
G04 Gerber Fmt 4.6, Leading zero omitted, Abs format (unit mm)*
G04 Created by KiCad (PCBNEW 6.0.9-8da3e8f707~117~ubuntu20.04.1) date 2022-12-05 22:16:00*
%MOMM*%
%LPD*%
G01*
G04 APERTURE LIST*
G04 Aperture macros list*
%AMRoundRect*
0 Rectangle with rounded corners*
0 $1 Rounding radius*
0 $2 $3 $4 $5 $6 $7 $8 $9 X,Y pos of 4 corners*
0 Add a 4 corners polygon primitive as box body*
4,1,4,$2,$3,$4,$5,$6,$7,$8,$9,$2,$3,0*
0 Add four circle primitives for the rounded corners*
1,1,$1+$1,$2,$3*
1,1,$1+$1,$4,$5*
1,1,$1+$1,$6,$7*
1,1,$1+$1,$8,$9*
0 Add four rect primitives between the rounded corners*
20,1,$1+$1,$2,$3,$4,$5,0*
20,1,$1+$1,$4,$5,$6,$7,0*
20,1,$1+$1,$6,$7,$8,$9,0*
20,1,$1+$1,$8,$9,$2,$3,0*%
%AMRotRect*
0 Rectangle, with rotation*
0 The origin of the aperture is its center*
0 $1 length*
0 $2 width*
0 $3 Rotation angle, in degrees counterclockwise*
0 Add horizontal line*
21,1,$1,$2,0,0,$3*%
G04 Aperture macros list end*
%ADD10R,4.600000X1.000000*%
%ADD11R,3.400000X1.600000*%
%ADD12RoundRect,0.250000X-1.450000X0.312500X-1.450000X-0.312500X1.450000X-0.312500X1.450000X0.312500X0*%
%ADD13R,1.500000X1.240000*%
%ADD14RotRect,1.075000X1.000000X315.000000*%
%ADD15R,0.550000X1.200000*%
%ADD16RotRect,1.075000X1.000000X135.000000*%
%ADD17RoundRect,0.200000X-0.800000X-0.200000X0.800000X-0.200000X0.800000X0.200000X-0.800000X0.200000X0*%
%ADD18R,1.075000X1.000000*%
%ADD19RotRect,0.450000X0.700000X45.000000*%
%ADD20R,1.240000X1.500000*%
%ADD21RotRect,0.450000X0.700000X135.000000*%
%ADD22R,0.900000X0.450000*%
%ADD23RotRect,1.075000X1.000000X45.000000*%
%ADD24RoundRect,0.200000X0.200000X-0.800000X0.200000X0.800000X-0.200000X0.800000X-0.200000X-0.800000X0*%
%ADD25RoundRect,0.200000X0.707107X-0.424264X-0.424264X0.707107X-0.707107X0.424264X0.424264X-0.707107X0*%
%ADD26R,1.000000X1.075000*%
%ADD27RoundRect,0.150000X-0.309359X-0.521491X0.521491X0.309359X0.309359X0.521491X-0.521491X-0.309359X0*%
%ADD28R,1.016000X0.635000*%
%ADD29R,0.900000X0.900000*%
%ADD30RotRect,0.450000X0.700000X225.000000*%
%ADD31RotRect,1.075000X1.000000X225.000000*%
%ADD32RoundRect,0.200000X-0.707107X0.424264X0.424264X-0.707107X0.707107X-0.424264X-0.424264X0.707107X0*%
%ADD33R,0.500000X0.500000*%
%ADD34R,0.400000X0.500000*%
%ADD35RoundRect,0.200000X0.424264X0.707107X-0.707107X-0.424264X-0.424264X-0.707107X0.707107X0.424264X0*%
%ADD36RoundRect,0.070000X0.330000X0.070000X-0.330000X0.070000X-0.330000X-0.070000X0.330000X-0.070000X0*%
%ADD37RoundRect,0.070000X0.070000X-0.330000X0.070000X0.330000X-0.070000X0.330000X-0.070000X-0.330000X0*%
%ADD38RoundRect,0.070000X-0.330000X-0.070000X0.330000X-0.070000X0.330000X0.070000X-0.330000X0.070000X0*%
%ADD39RoundRect,0.070000X-0.070000X0.330000X-0.070000X-0.330000X0.070000X-0.330000X0.070000X0.330000X0*%
%ADD40RotRect,0.450000X0.700000X315.000000*%
%ADD41R,0.550000X1.050000*%
%ADD42R,0.800000X0.400000*%
%ADD43R,0.400000X0.800000*%
%ADD44R,1.450000X1.450000*%
%ADD45R,0.700000X0.700000*%
%ADD46R,0.250000X0.275000*%
%ADD47R,0.275000X0.250000*%
%ADD48R,0.800000X0.800000*%
%ADD49R,0.575000X1.150000*%
%ADD50R,0.275000X1.150000*%
%ADD51RoundRect,0.150000X-0.521491X0.309359X0.309359X-0.521491X0.521491X-0.309359X-0.309359X0.521491X0*%
%ADD52RoundRect,0.200000X-0.424264X-0.707107X0.707107X0.424264X0.424264X0.707107X-0.707107X-0.424264X0*%
%ADD53RoundRect,0.150000X0.521491X-0.309359X-0.309359X0.521491X-0.521491X0.309359X0.309359X-0.521491X0*%
%ADD54R,0.300000X0.350000*%
%ADD55R,0.350000X0.300000*%
%ADD56RoundRect,0.150000X0.309359X0.521491X-0.521491X-0.309359X-0.309359X-0.521491X0.521491X0.309359X0*%
%ADD57R,1.400000X1.400000*%
%ADD58RotRect,0.590000X0.350000X225.000000*%
%ADD59RotRect,0.590000X0.350000X315.000000*%
%ADD60RotRect,0.590000X0.350000X45.000000*%
%ADD61RotRect,0.590000X0.350000X135.000000*%
G04 APERTURE END LIST*
%TO.C,IC3*%
G36*
X107600000Y-110600000D02*
G01*
X107000000Y-110600000D01*
X107000000Y-110000000D01*
X107600000Y-110000000D01*
X107600000Y-110600000D01*
G37*
G36*
X106700000Y-109700000D02*
G01*
X106100000Y-109700000D01*
X106100000Y-109100000D01*
X106700000Y-109100000D01*
X106700000Y-109700000D01*
G37*
G36*
X105800000Y-108800000D02*
G01*
X105200000Y-108800000D01*
X105200000Y-108200000D01*
X105800000Y-108200000D01*
X105800000Y-108800000D01*
G37*
G36*
X107600000Y-109700000D02*
G01*
X107000000Y-109700000D01*
X107000000Y-109100000D01*
X107600000Y-109100000D01*
X107600000Y-109700000D01*
G37*
G36*
X105800000Y-110600000D02*
G01*
X105200000Y-110600000D01*
X105200000Y-110000000D01*
X105800000Y-110000000D01*
X105800000Y-110600000D01*
G37*
G36*
X106700000Y-110600000D02*
G01*
X106100000Y-110600000D01*
X106100000Y-110000000D01*
X106700000Y-110000000D01*
X106700000Y-110600000D01*
G37*
G36*
X106700000Y-108800000D02*
G01*
X106100000Y-108800000D01*
X106100000Y-108200000D01*
X106700000Y-108200000D01*
X106700000Y-108800000D01*
G37*
G36*
X107600000Y-108800000D02*
G01*
X107000000Y-108800000D01*
X107000000Y-108200000D01*
X107600000Y-108200000D01*
X107600000Y-108800000D01*
G37*
G36*
X105800000Y-109700000D02*
G01*
X105200000Y-109700000D01*
X105200000Y-109100000D01*
X105800000Y-109100000D01*
X105800000Y-109700000D01*
G37*
%TO.C,X3*%
G36*
X101530000Y-68980000D02*
G01*
X100070000Y-68980000D01*
X100070000Y-68122929D01*
X100672929Y-67520000D01*
X101530000Y-67520000D01*
X101530000Y-68980000D01*
G37*
%TO.C,X6*%
G36*
X106729832Y-117548520D02*
G01*
X106864365Y-117617068D01*
X106971132Y-117723835D01*
X107063300Y-118007500D01*
X107063300Y-119023500D01*
X107039680Y-119172632D01*
X106971132Y-119307165D01*
X106864365Y-119413932D01*
X106580700Y-119506100D01*
X106449220Y-119488790D01*
X106326700Y-119438041D01*
X106221490Y-119357310D01*
X106140759Y-119252100D01*
X106072700Y-118998100D01*
X106072700Y-118032900D01*
X106090010Y-117901420D01*
X106140759Y-117778900D01*
X106221490Y-117673690D01*
X106326700Y-117592959D01*
X106580700Y-117524900D01*
X106729832Y-117548520D01*
G37*
G36*
X98093832Y-121739520D02*
G01*
X98228365Y-121808068D01*
X98335132Y-121914835D01*
X98427300Y-122198500D01*
X98427300Y-123214500D01*
X98403680Y-123363632D01*
X98335132Y-123498165D01*
X98228365Y-123604932D01*
X97944700Y-123697100D01*
X97813220Y-123679790D01*
X97690700Y-123629041D01*
X97585490Y-123548310D01*
X97504759Y-123443100D01*
X97436700Y-123189100D01*
X97436700Y-122223900D01*
X97454010Y-122092420D01*
X97504759Y-121969900D01*
X97585490Y-121864690D01*
X97690700Y-121783959D01*
X97944700Y-121715900D01*
X98093832Y-121739520D01*
G37*
G36*
X98081132Y-117561220D02*
G01*
X98215665Y-117629768D01*
X98322432Y-117736535D01*
X98414600Y-118020200D01*
X98414600Y-119036200D01*
X98390980Y-119185332D01*
X98322432Y-119319865D01*
X98215665Y-119426632D01*
X97932000Y-119518800D01*
X97800520Y-119501490D01*
X97678000Y-119450741D01*
X97572790Y-119370010D01*
X97492059Y-119264800D01*
X97424000Y-119010800D01*
X97424000Y-118045600D01*
X97441310Y-117914120D01*
X97492059Y-117791600D01*
X97572790Y-117686390D01*
X97678000Y-117605659D01*
X97932000Y-117537600D01*
X98081132Y-117561220D01*
G37*
G36*
X106729832Y-121739520D02*
G01*
X106864365Y-121808068D01*
X106971132Y-121914835D01*
X107063300Y-122198500D01*
X107063300Y-123214500D01*
X107039680Y-123363632D01*
X106971132Y-123498165D01*
X106864365Y-123604932D01*
X106580700Y-123697100D01*
X106449220Y-123679790D01*
X106326700Y-123629041D01*
X106221490Y-123548310D01*
X106140759Y-123443100D01*
X106072700Y-123189100D01*
X106072700Y-122223900D01*
X106090010Y-122092420D01*
X106140759Y-121969900D01*
X106221490Y-121864690D01*
X106326700Y-121783959D01*
X106580700Y-121715900D01*
X106729832Y-121739520D01*
G37*
%TD*%
D10*
%TO.C,X1*%
X81800000Y-96000000D03*
X81800000Y-94000000D03*
D11*
X76600000Y-98400000D03*
X76600000Y-91600000D03*
%TD*%
D12*
%TO.C,L1*%
X80700000Y-82262500D03*
X80700000Y-86537500D03*
%TD*%
D13*
%TO.C,C1*%
X93500000Y-67800001D03*
X93500000Y-65900001D03*
%TD*%
D14*
%TO.C,R8*%
X88388908Y-83209010D03*
X89590990Y-84411092D03*
%TD*%
D15*
%TO.C,U2*%
X96750000Y-103900100D03*
X97700000Y-103900100D03*
X98650000Y-103900100D03*
X98650000Y-101299900D03*
X96750000Y-101299900D03*
%TD*%
D16*
%TO.C,R11*%
X88601041Y-85401041D03*
X87398959Y-84198959D03*
%TD*%
D17*
%TO.C,J2*%
X60100000Y-89575000D03*
X60100000Y-88375000D03*
%TD*%
D18*
%TO.C,R12*%
X103550000Y-105700000D03*
X101850000Y-105700000D03*
%TD*%
D19*
%TO.C,D5*%
X135031307Y-64645057D03*
X135950546Y-63725818D03*
X134076713Y-62771224D03*
%TD*%
D20*
%TO.C,C6*%
X96850000Y-107400000D03*
X98750000Y-107400000D03*
%TD*%
D18*
%TO.C,C18*%
X85300000Y-87100000D03*
X83600000Y-87100000D03*
%TD*%
D13*
%TO.C,C13*%
X91900000Y-67800001D03*
X91900000Y-65900001D03*
%TD*%
D18*
%TO.C,R5*%
X107450000Y-113600000D03*
X105750000Y-113600000D03*
%TD*%
%TO.C,R2*%
X112300000Y-89500000D03*
X110600000Y-89500000D03*
%TD*%
%TO.C,C11*%
X105800000Y-115200000D03*
X107500000Y-115200000D03*
%TD*%
D21*
%TO.C,D2*%
X72532220Y-63485694D03*
X71612981Y-62566455D03*
X70658387Y-64440288D03*
%TD*%
D20*
%TO.C,C2*%
X96500000Y-99600000D03*
X98400000Y-99600000D03*
%TD*%
D22*
%TO.C,R9*%
X95350000Y-110000000D03*
X95350000Y-110900000D03*
X95350000Y-111700000D03*
X95350000Y-112600000D03*
X97050000Y-112600000D03*
X97050000Y-111700000D03*
X97050000Y-110900000D03*
X97050000Y-110000000D03*
%TD*%
D23*
%TO.C,C7*%
X119427386Y-80220280D03*
X120629468Y-79018198D03*
%TD*%
D24*
%TO.C,J1*%
X78075000Y-88100000D03*
X76875000Y-88100000D03*
%TD*%
D25*
%TO.C,J3*%
X136190649Y-128494633D03*
X135342120Y-129343161D03*
%TD*%
D26*
%TO.C,C4*%
X109950000Y-100700000D03*
X109950000Y-99000000D03*
%TD*%
D14*
%TO.C,C5*%
X91609188Y-95487868D03*
X92811270Y-96689950D03*
%TD*%
D27*
%TO.C,Q6*%
X71795494Y-127002765D03*
X71141420Y-129000342D03*
X69797917Y-127656839D03*
%TD*%
D28*
%TO.C,Q3*%
X95150000Y-107550000D03*
X95150000Y-105650000D03*
X93150000Y-106600000D03*
%TD*%
D18*
%TO.C,R4*%
X105300000Y-87900000D03*
X107000000Y-87900000D03*
%TD*%
D26*
%TO.C,C15*%
X109850000Y-92650000D03*
X109850000Y-94350000D03*
%TD*%
D18*
%TO.C,R6*%
X95250000Y-115400000D03*
X96950000Y-115400000D03*
%TD*%
%TO.C,R10*%
X90800000Y-76300000D03*
X89100000Y-76300000D03*
%TD*%
D29*
%TO.C,SW1*%
X91500000Y-114050000D03*
X91500000Y-118150000D03*
X93100000Y-114050000D03*
X93100000Y-118150000D03*
%TD*%
D16*
%TO.C,R17*%
X76302082Y-69702082D03*
X75100000Y-68500000D03*
%TD*%
D18*
%TO.C,R7*%
X100250000Y-103900000D03*
X101950000Y-103900000D03*
%TD*%
D30*
%TO.C,D6*%
X68552513Y-128833274D03*
X67633274Y-129752513D03*
X69507107Y-130707107D03*
%TD*%
D31*
%TO.C,R21*%
X73578723Y-123889278D03*
X72376641Y-125091360D03*
%TD*%
D32*
%TO.C,J4*%
X68944949Y-62351393D03*
X69793478Y-61502865D03*
%TD*%
D33*
%TO.C,Q5*%
X112750000Y-108850000D03*
D34*
X112000000Y-108850000D03*
D33*
X111250000Y-108850000D03*
X111250000Y-110650000D03*
D34*
X112000000Y-110650000D03*
D33*
X112750000Y-110650000D03*
%TD*%
D35*
%TO.C,J5*%
X136135876Y-61028054D03*
X136984404Y-61876583D03*
%TD*%
D16*
%TO.C,R1*%
X89700000Y-95700000D03*
X88497918Y-94497918D03*
%TD*%
D36*
%TO.C,IC3*%
X104400000Y-108150000D03*
X104400000Y-108650000D03*
X104400000Y-109150000D03*
X104400000Y-109650000D03*
X104400000Y-110150000D03*
X104400000Y-110650000D03*
D37*
X105150000Y-111400000D03*
X105650000Y-111400000D03*
X106150000Y-111400000D03*
X106650000Y-111400000D03*
X107150000Y-111400000D03*
X107650000Y-111400000D03*
D38*
X108400000Y-110650000D03*
X108400000Y-110150000D03*
X108400000Y-109650000D03*
X108400000Y-109150000D03*
X108400000Y-108650000D03*
X108400000Y-108150000D03*
D39*
X107650000Y-107400000D03*
X107150000Y-107400000D03*
X106650000Y-107400000D03*
X106150000Y-107400000D03*
X105650000Y-107400000D03*
X105150000Y-107400000D03*
%TD*%
D40*
%TO.C,D1*%
X132602082Y-127345584D03*
X133521321Y-128264823D03*
X134475915Y-126390990D03*
%TD*%
D18*
%TO.C,C20*%
X80300000Y-89600000D03*
X82000000Y-89600000D03*
%TD*%
D41*
%TO.C,IC4*%
X83550000Y-85600000D03*
X84500000Y-85600000D03*
X85450000Y-85600000D03*
X85450000Y-83000000D03*
X84500000Y-83000000D03*
X83550000Y-83000000D03*
%TD*%
D42*
%TO.C,X3*%
X96850000Y-66200000D03*
X96850000Y-67000000D03*
X96850000Y-67800000D03*
X96850000Y-68600000D03*
X96850000Y-69400000D03*
X96850000Y-70200000D03*
X96850000Y-71000000D03*
X96850000Y-71800000D03*
X96850000Y-72600000D03*
X96850000Y-73400000D03*
X96850000Y-74200000D03*
D43*
X97950000Y-75100000D03*
X98750000Y-75100000D03*
X99550000Y-75100000D03*
X100350000Y-75100000D03*
X101150000Y-75100000D03*
X101950000Y-75100000D03*
X102750000Y-75100000D03*
X103550000Y-75100000D03*
X104350000Y-75100000D03*
X105150000Y-75100000D03*
X105950000Y-75100000D03*
X106750000Y-75100000D03*
X107550000Y-75100000D03*
D42*
X108650000Y-74200000D03*
X108650000Y-73400000D03*
X108650000Y-72600000D03*
X108650000Y-71800000D03*
X108650000Y-71000000D03*
X108650000Y-70200000D03*
X108650000Y-69400000D03*
X108650000Y-68600000D03*
X108650000Y-67800000D03*
X108650000Y-67000000D03*
X108650000Y-66200000D03*
D43*
X107550000Y-65300000D03*
X106750000Y-65300000D03*
X105950000Y-65300000D03*
X105150000Y-65300000D03*
X104350000Y-65300000D03*
X103550000Y-65300000D03*
X102750000Y-65300000D03*
X101950000Y-65300000D03*
X101150000Y-65300000D03*
X100350000Y-65300000D03*
X99550000Y-65300000D03*
X98750000Y-65300000D03*
X97950000Y-65300000D03*
D44*
X102750000Y-70200000D03*
D45*
X108700000Y-65250000D03*
X108700000Y-75150000D03*
X96800000Y-75150000D03*
X96800000Y-65250000D03*
D44*
X100800000Y-70200000D03*
X100800000Y-72150000D03*
X102750000Y-72150000D03*
X104700000Y-72150000D03*
X104700000Y-70200000D03*
X104700000Y-68250000D03*
X102750000Y-68250000D03*
%TD*%
D46*
%TO.C,IC2*%
X117594000Y-89637000D03*
X117094000Y-89637000D03*
D47*
X116582000Y-89900000D03*
X116582000Y-90400000D03*
X116582000Y-90900000D03*
D46*
X117094000Y-91163000D03*
X117594000Y-91163000D03*
D47*
X118106000Y-90900000D03*
X118106000Y-90400000D03*
X118106000Y-89900000D03*
%TD*%
D20*
%TO.C,C8*%
X96500000Y-97600000D03*
X98400000Y-97600000D03*
%TD*%
D23*
%TO.C,R19*%
X73492498Y-126207217D03*
X74694580Y-125005135D03*
%TD*%
D29*
%TO.C,SW2*%
X108600000Y-99100000D03*
X104500000Y-99100000D03*
X108600000Y-100700000D03*
X104500000Y-100700000D03*
%TD*%
D16*
%TO.C,R3*%
X91785965Y-97785965D03*
X90583883Y-96583883D03*
%TD*%
D48*
%TO.C,D3*%
X89100000Y-77500000D03*
X90600000Y-77500000D03*
%TD*%
D26*
%TO.C,C12*%
X103500000Y-111700000D03*
X103500000Y-113400000D03*
%TD*%
D49*
%TO.C,X6*%
X99050000Y-117955000D03*
X99850000Y-117955000D03*
D50*
X101000000Y-117955000D03*
X102000000Y-117955000D03*
X102500000Y-117955000D03*
X103500000Y-117955000D03*
D49*
X105450000Y-117955000D03*
X104650000Y-117955000D03*
D50*
X104000000Y-117955000D03*
X103000000Y-117955000D03*
X101500000Y-117955000D03*
X100500000Y-117955000D03*
%TD*%
D18*
%TO.C,C17*%
X110600000Y-91300000D03*
X112300000Y-91300000D03*
%TD*%
D26*
%TO.C,C9*%
X95100000Y-66100000D03*
X95100000Y-67800000D03*
%TD*%
D18*
%TO.C,C21*%
X80300000Y-88100000D03*
X82000000Y-88100000D03*
%TD*%
D23*
%TO.C,R20*%
X130000000Y-69600000D03*
X131202082Y-68397918D03*
%TD*%
D26*
%TO.C,C3*%
X106000000Y-91600000D03*
X106000000Y-89900000D03*
%TD*%
%TO.C,C16*%
X108400000Y-92650000D03*
X108400000Y-94350000D03*
%TD*%
D18*
%TO.C,C22*%
X115294000Y-93150000D03*
X116994000Y-93150000D03*
%TD*%
D51*
%TO.C,Q2*%
X73724743Y-64731055D03*
X72381240Y-66074558D03*
X74378817Y-66728632D03*
%TD*%
D52*
%TO.C,J6*%
X67432640Y-132451017D03*
X66584112Y-131602488D03*
%TD*%
D53*
%TO.C,Q1*%
X131391161Y-126134664D03*
X132734664Y-124791161D03*
X130737087Y-124137087D03*
%TD*%
D54*
%TO.C,IC1*%
X109000000Y-89650000D03*
X108500000Y-89650000D03*
X108000000Y-89650000D03*
X107500000Y-89650000D03*
D55*
X107500000Y-90150000D03*
X107500000Y-90650000D03*
D54*
X107500000Y-91150000D03*
X108000000Y-91150000D03*
X108500000Y-91150000D03*
X109000000Y-91150000D03*
D55*
X109000000Y-90650000D03*
X109000000Y-90150000D03*
%TD*%
D56*
%TO.C,Q4*%
X133798263Y-65849898D03*
X132454760Y-64506395D03*
X131800686Y-66503972D03*
%TD*%
D26*
%TO.C,C19*%
X83599999Y-81550000D03*
X83599999Y-79850000D03*
%TD*%
D57*
%TO.C,D4*%
X100400000Y-105700000D03*
X96700000Y-105700000D03*
%TD*%
D31*
%TO.C,R18*%
X130070711Y-67266547D03*
X128868629Y-68468629D03*
%TD*%
D14*
%TO.C,R16*%
X127616979Y-122360481D03*
X128819061Y-123562563D03*
%TD*%
D16*
%TO.C,R14*%
X129950432Y-122431192D03*
X128748350Y-121229110D03*
%TD*%
D23*
%TO.C,C14*%
X120558757Y-81351651D03*
X121760839Y-80149569D03*
%TD*%
D22*
%TO.C,R13*%
X112850000Y-107800000D03*
X112850000Y-106900000D03*
X112850000Y-106100000D03*
X112850000Y-105200000D03*
X111150000Y-105200000D03*
X111150000Y-106100000D03*
X111150000Y-106900000D03*
X111150000Y-107800000D03*
%TD*%
D26*
%TO.C,C23*%
X120194000Y-91200000D03*
X120194000Y-89500000D03*
%TD*%
D58*
%TO.C,U1*%
X118554109Y-77345891D03*
D59*
X117436881Y-76815560D03*
X117083327Y-77169114D03*
X116729774Y-77522667D03*
X116376221Y-77876221D03*
X116022667Y-78229774D03*
X115669114Y-78583327D03*
X115315560Y-78936881D03*
D60*
X115845891Y-80054109D03*
D61*
X116963119Y-80584440D03*
X117316673Y-80230886D03*
X117670226Y-79877333D03*
X118023779Y-79523779D03*
X118377333Y-79170226D03*
X118730886Y-78816673D03*
X119084440Y-78463119D03*
%TD*%
D14*
%TO.C,R15*%
X76316827Y-67283173D03*
X77518909Y-68485255D03*
%TD*%
M02*
