M48
; DRILL file {KiCad 6.0.9-8da3e8f707~117~ubuntu20.04.1} date Mon 05 Dec 2022 10:15:58 PM GMT
; FORMAT={-:-/ absolute / inch / decimal}
; #@! TF.CreationDate,2022-12-05T22:15:58+00:00
; #@! TF.GenerationSoftware,Kicad,Pcbnew,6.0.9-8da3e8f707~117~ubuntu20.04.1
; #@! TF.FileFunction,Plated,1,2,PTH
FMAT,2
INCH
; #@! TA.AperFunction,Plated,PTH,ViaDrill
T1C0.0118
; #@! TA.AperFunction,Plated,PTH,ComponentDrill
T2C0.0236
%
G90
G05
T1
X2.822Y-5.102
X2.8228Y-2.626
X2.8731Y-4.8539
X2.9921Y-3.4685
X3.0157Y-3.5591
X3.0984Y-3.8701
X3.2205Y-3.6614
X3.2598Y-3.4685
X3.2598Y-3.5276
X3.2677Y-3.3701
X3.2913Y-3.4646
X3.315Y-2.9843
X3.5512Y-3.8504
X3.5748Y-3.8898
X3.5984Y-4.4567
X3.5984Y-4.6142
X3.6102Y-3.0039
X3.626Y-3.437
X3.6457Y-3.0945
X3.7244Y-4.3937
X3.7402Y-3.0472
X3.748Y-4.5827
X3.7559Y-3.3543
X3.7559Y-3.5276
X3.7559Y-4.0787
X3.7835Y-2.9213
X3.7913Y-3.0945
X3.8169Y-4.5433
X3.8346Y-3.9843
X3.8661Y-4.4409
X3.874Y-4.4016
X3.8819Y-4.6063
X3.8898Y-2.6063
X3.8898Y-4.2756
X3.9094Y-3.9213
X3.9134Y-3.8425
X3.9213Y-2.685
X3.9213Y-2.7638
X3.9213Y-2.9252
X3.9291Y-2.8425
X3.9803Y-4.6929
X3.9843Y-4.5433
X4.0079Y-4.7126
X4.0315Y-4.689
X4.0472Y-2.5984
X4.0472Y-2.6378
X4.0472Y-2.8898
X4.0591Y-4.7165
X4.063Y-4.5669
X4.0748Y-4.3583
X4.0945Y-4.5433
X4.1102Y-4.4252
X4.1181Y-3.0906
X4.122Y-4.1575
X4.126Y-2.6378
X4.126Y-2.8898
X4.1575Y-4.189
X4.1634Y-4.4724
X4.1654Y-4.1142
X4.1654Y-4.4213
X4.1654Y-4.5984
X4.1732Y-3.0906
X4.1732Y-3.6417
X4.1812Y-3.5019
X4.185Y-2.8937
X4.1969Y-3.126
X4.2323Y-3.7126
X4.2362Y-2.6063
X4.2362Y-4.5669
X4.248Y-2.7283
X4.248Y-2.7638
X4.248Y-3.0276
X4.252Y-3.5118
X4.2677Y-4.4803
X4.2795Y-4.122
X4.2992Y-3.1181
X4.311Y-3.4843
X4.3386Y-2.6417
X4.3386Y-2.9724
X4.3465Y-3.1181
X4.3622Y-3.7126
X4.3622Y-4.2874
X4.3661Y-4.1063
X4.4094Y-3.6299
X4.4094Y-4.1969
X4.4094Y-4.315
X4.4116Y-2.888
X4.4134Y-3.4843
X4.4409Y-4.3228
X4.4488Y-2.9961
X4.4528Y-3.189
X4.4803Y-4.2362
X4.5591Y-3.5276
X4.563Y-3.5945
X4.5669Y-3.0276
X4.6181Y-2.9764
X4.622Y-3.189
X4.6378Y-3.0709
X4.6575Y-3.1693
X4.7441Y-3.315
X4.7441Y-3.3701
X4.7717Y-3.0866
X4.815Y-3.1339
X4.9882Y-4.8425
X5.0394Y-2.6457
X5.1457Y-2.7717
X5.189Y-2.5118
X5.2559Y-4.8858
T2
X3.8555Y-4.6665
X3.8555Y-4.8311
X4.1957Y-4.6665
X4.1957Y-4.8311
T0
M30
